# MagicaVoxel @ Ephtracy

# group
o 

# material
mtllib Torch.mtl
usemtl palette

# normals
vn -1 0 0
vn 1 0 0
vn 0 0 1
vn 0 0 -1
vn 0 -1 0
vn 0 1 0

# texcoords
vt 0.00195313 0.5
vt 0.0644531 0.5
vt 0.0683594 0.5
vt 0.0917969 0.5
vt 0.537109 0.5

# verts
v -0.6 0.5 0.8
v -0.6 0.5 0.7
v -0.6 0.7 0.8
v -0.6 0.7 0.7
v -0.5 0.5 0.9
v -0.5 0.5 0.8
v -0.5 0.5 0.7
v -0.5 0.5 0.6
v -0.5 0.6 0.9
v -0.5 0.6 0.8
v -0.5 0.6 0.7
v -0.5 0.6 0.6
v -0.5 0.7 0.9
v -0.5 0.7 0.8
v -0.5 0.7 0.7
v -0.5 0.7 0.6
v -0.5 0.9 0.8
v -0.5 0.9 0.7
v -0.5 1 0.8
v -0.5 1 0.7
v -0.4 0 0.8
v -0.4 0 0.7
v -0.4 0.5 1
v -0.4 0.5 0.9
v -0.4 0.5 0.8
v -0.4 0.5 0.7
v -0.4 0.5 0.6
v -0.4 0.5 0.5
v -0.4 0.6 0.9
v -0.4 0.6 0.6
v -0.4 0.7 1
v -0.4 0.7 0.9
v -0.4 0.7 0.8
v -0.4 0.7 0.7
v -0.4 0.7 0.6
v -0.4 0.7 0.5
v -0.4 0.8 0.9
v -0.4 0.8 0.8
v -0.4 0.8 0.7
v -0.4 0.9 0.9
v -0.4 0.9 0.8
v -0.3 0.9 0.7
v -0.3 0.9 0.6
v -0.3 1 0.7
v -0.3 1 0.6
v -0.4 0.9 0.8
v -0.4 0.9 0.7
v -0.4 1 0.8
v -0.4 1 0.7
v -0.3 0 0.8
v -0.3 0 0.7
v -0.3 0.5 1
v -0.3 0.5 0.9
v -0.3 0.5 0.8
v -0.3 0.5 0.7
v -0.3 0.5 0.6
v -0.3 0.5 0.5
v -0.3 0.6 0.9
v -0.3 0.6 0.6
v -0.3 0.7 1
v -0.3 0.7 0.9
v -0.3 0.7 0.8
v -0.3 0.7 0.7
v -0.3 0.7 0.6
v -0.3 0.7 0.5
v -0.3 0.8 0.9
v -0.3 0.8 0.8
v -0.3 0.8 0.7
v -0.3 0.9 0.9
v -0.3 0.9 0.8
v -0.2 0.5 0.9
v -0.2 0.5 0.8
v -0.2 0.5 0.7
v -0.2 0.5 0.6
v -0.2 0.6 0.9
v -0.2 0.6 0.8
v -0.2 0.6 0.7
v -0.2 0.6 0.6
v -0.2 0.7 0.9
v -0.2 0.7 0.8
v -0.2 0.7 0.7
v -0.2 0.7 0.6
v -0.2 0.9 0.7
v -0.2 0.9 0.6
v -0.2 1 0.7
v -0.2 1 0.6
v -0.1 0.5 0.8
v -0.1 0.5 0.7
v -0.1 0.7 0.8
v -0.1 0.7 0.7
v -0.4 0.5 1
v -0.4 0.7 1
v -0.3 0.5 1
v -0.3 0.7 1
v -0.5 0.5 0.9
v -0.5 0.6 0.9
v -0.5 0.7 0.9
v -0.4 0.5 0.9
v -0.4 0.6 0.9
v -0.4 0.7 0.9
v -0.4 0.8 0.9
v -0.4 0.9 0.9
v -0.3 0.5 0.9
v -0.3 0.6 0.9
v -0.3 0.7 0.9
v -0.3 0.8 0.9
v -0.3 0.9 0.9
v -0.2 0.5 0.9
v -0.2 0.6 0.9
v -0.2 0.7 0.9
v -0.6 0.5 0.8
v -0.6 0.7 0.8
v -0.5 0.5 0.8
v -0.5 0.6 0.8
v -0.5 0.7 0.8
v -0.5 0.9 0.8
v -0.5 1 0.8
v -0.4 0 0.8
v -0.4 0.5 0.8
v -0.4 0.7 0.8
v -0.4 0.8 0.8
v -0.4 0.9 0.8
v -0.4 1 0.8
v -0.3 0 0.8
v -0.3 0.5 0.8
v -0.3 0.7 0.8
v -0.3 0.8 0.8
v -0.2 0.5 0.8
v -0.2 0.6 0.8
v -0.2 0.7 0.8
v -0.1 0.5 0.8
v -0.1 0.7 0.8
v -0.3 0.9 0.7
v -0.3 1 0.7
v -0.2 0.9 0.7
v -0.2 1 0.7
v -0.4 0.8 0.8
v -0.4 0.9 0.8
v -0.3 0.8 0.8
v -0.3 0.9 0.8
v -0.6 0.5 0.7
v -0.6 0.7 0.7
v -0.5 0.5 0.7
v -0.5 0.6 0.7
v -0.5 0.7 0.7
v -0.5 0.9 0.7
v -0.5 1 0.7
v -0.4 0 0.7
v -0.4 0.5 0.7
v -0.4 0.7 0.7
v -0.4 0.8 0.7
v -0.4 0.9 0.7
v -0.4 1 0.7
v -0.3 0 0.7
v -0.3 0.5 0.7
v -0.3 0.7 0.7
v -0.3 0.8 0.7
v -0.2 0.5 0.7
v -0.2 0.6 0.7
v -0.2 0.7 0.7
v -0.1 0.5 0.7
v -0.1 0.7 0.7
v -0.5 0.5 0.6
v -0.5 0.6 0.6
v -0.5 0.7 0.6
v -0.4 0.5 0.6
v -0.4 0.6 0.6
v -0.4 0.7 0.6
v -0.3 0.5 0.6
v -0.3 0.6 0.6
v -0.3 0.7 0.6
v -0.3 0.9 0.6
v -0.3 1 0.6
v -0.2 0.5 0.6
v -0.2 0.6 0.6
v -0.2 0.7 0.6
v -0.2 0.9 0.6
v -0.2 1 0.6
v -0.4 0.5 0.5
v -0.4 0.7 0.5
v -0.3 0.5 0.5
v -0.3 0.7 0.5
v -0.4 0 0.8
v -0.3 0 0.8
v -0.4 0 0.7
v -0.3 0 0.7
v -0.4 0.5 1
v -0.3 0.5 1
v -0.5 0.5 0.9
v -0.4 0.5 0.9
v -0.3 0.5 0.9
v -0.2 0.5 0.9
v -0.6 0.5 0.8
v -0.5 0.5 0.8
v -0.4 0.5 0.8
v -0.3 0.5 0.8
v -0.2 0.5 0.8
v -0.1 0.5 0.8
v -0.6 0.5 0.7
v -0.5 0.5 0.7
v -0.4 0.5 0.7
v -0.3 0.5 0.7
v -0.2 0.5 0.7
v -0.1 0.5 0.7
v -0.5 0.5 0.6
v -0.4 0.5 0.6
v -0.3 0.5 0.6
v -0.2 0.5 0.6
v -0.4 0.5 0.5
v -0.3 0.5 0.5
v -0.4 0.8 0.9
v -0.3 0.8 0.9
v -0.4 0.8 0.8
v -0.3 0.8 0.8
v -0.5 0.9 0.8
v -0.4 0.9 0.8
v -0.5 0.9 0.7
v -0.4 0.9 0.7
v -0.3 0.9 0.7
v -0.2 0.9 0.7
v -0.3 0.9 0.6
v -0.2 0.9 0.6
v -0.4 0.7 1
v -0.3 0.7 1
v -0.5 0.7 0.9
v -0.4 0.7 0.9
v -0.3 0.7 0.9
v -0.2 0.7 0.9
v -0.6 0.7 0.8
v -0.5 0.7 0.8
v -0.4 0.7 0.8
v -0.3 0.7 0.8
v -0.2 0.7 0.8
v -0.1 0.7 0.8
v -0.6 0.7 0.7
v -0.5 0.7 0.7
v -0.4 0.7 0.7
v -0.3 0.7 0.7
v -0.2 0.7 0.7
v -0.1 0.7 0.7
v -0.5 0.7 0.6
v -0.4 0.7 0.6
v -0.3 0.7 0.6
v -0.2 0.7 0.6
v -0.4 0.7 0.5
v -0.3 0.7 0.5
v -0.4 0.8 0.8
v -0.3 0.8 0.8
v -0.4 0.8 0.7
v -0.3 0.8 0.7
v -0.4 0.9 0.9
v -0.3 0.9 0.9
v -0.4 0.9 0.8
v -0.3 0.9 0.8
v -0.5 1 0.8
v -0.4 1 0.8
v -0.5 1 0.7
v -0.4 1 0.7
v -0.3 1 0.7
v -0.2 1 0.7
v -0.3 1 0.6
v -0.2 1 0.6

# faces
f 3/5/1 2/5/1 1/5/1
f 4/5/1 2/5/1 3/5/1
f 9/5/1 6/5/1 5/5/1
f 10/5/1 6/5/1 9/5/1
f 11/5/1 8/5/1 7/5/1
f 12/5/1 8/5/1 11/5/1
f 13/3/1 10/3/1 9/3/1
f 14/3/1 10/3/1 13/3/1
f 15/3/1 12/3/1 11/3/1
f 16/3/1 12/3/1 15/3/1
f 19/1/1 18/1/1 17/1/1
f 20/1/1 18/1/1 19/1/1
f 25/5/1 22/5/1 21/5/1
f 26/5/1 22/5/1 25/5/1
f 29/5/1 24/5/1 23/5/1
f 30/5/1 28/5/1 27/5/1
f 31/5/1 29/5/1 23/5/1
f 32/5/1 29/5/1 31/5/1
f 35/5/1 28/5/1 30/5/1
f 36/5/1 28/5/1 35/5/1
f 38/2/1 34/2/1 33/2/1
f 39/2/1 34/2/1 38/2/1
f 40/2/1 38/2/1 37/2/1
f 41/2/1 38/2/1 40/2/1
f 44/1/1 43/1/1 42/1/1
f 45/1/1 43/1/1 44/1/1
f 46/1/2 47/1/2 48/1/2
f 48/1/2 47/1/2 49/1/2
f 50/5/2 51/5/2 54/5/2
f 54/5/2 51/5/2 55/5/2
f 52/5/2 53/5/2 58/5/2
f 56/5/2 57/5/2 59/5/2
f 52/5/2 58/5/2 60/5/2
f 60/5/2 58/5/2 61/5/2
f 59/5/2 57/5/2 64/5/2
f 64/5/2 57/5/2 65/5/2
f 62/2/2 63/2/2 67/2/2
f 67/2/2 63/2/2 68/2/2
f 66/2/2 67/2/2 69/2/2
f 69/2/2 67/2/2 70/2/2
f 71/5/2 72/5/2 75/5/2
f 75/5/2 72/5/2 76/5/2
f 73/5/2 74/5/2 77/5/2
f 77/5/2 74/5/2 78/5/2
f 75/3/2 76/3/2 79/3/2
f 79/3/2 76/3/2 80/3/2
f 77/3/2 78/3/2 81/3/2
f 81/3/2 78/3/2 82/3/2
f 83/1/2 84/1/2 85/1/2
f 85/1/2 84/1/2 86/1/2
f 87/5/2 88/5/2 89/5/2
f 89/5/2 88/5/2 90/5/2
f 93/5/3 92/5/3 91/5/3
f 94/5/3 92/5/3 93/5/3
f 98/5/3 96/5/3 95/5/3
f 99/3/3 97/3/3 96/3/3
f 99/5/3 96/5/3 98/5/3
f 100/3/3 97/3/3 99/3/3
f 106/2/3 102/2/3 101/2/3
f 107/2/3 102/2/3 106/2/3
f 108/5/3 104/5/3 103/5/3
f 109/3/3 105/3/3 104/3/3
f 109/5/3 104/5/3 108/5/3
f 110/3/3 105/3/3 109/3/3
f 113/5/3 112/5/3 111/5/3
f 114/5/3 112/5/3 113/5/3
f 115/5/3 112/5/3 114/5/3
f 122/1/3 117/1/3 116/1/3
f 123/1/3 117/1/3 122/1/3
f 124/5/3 119/5/3 118/5/3
f 125/5/3 119/5/3 124/5/3
f 126/2/3 121/2/3 120/2/3
f 127/2/3 121/2/3 126/2/3
f 131/5/3 129/5/3 128/5/3
f 131/5/3 130/5/3 129/5/3
f 132/5/3 130/5/3 131/5/3
f 135/1/3 134/1/3 133/1/3
f 136/1/3 134/1/3 135/1/3
f 137/2/4 138/2/4 139/2/4
f 139/2/4 138/2/4 140/2/4
f 141/5/4 142/5/4 143/5/4
f 143/5/4 142/5/4 144/5/4
f 144/5/4 142/5/4 145/5/4
f 146/1/4 147/1/4 152/1/4
f 152/1/4 147/1/4 153/1/4
f 148/5/4 149/5/4 154/5/4
f 154/5/4 149/5/4 155/5/4
f 150/2/4 151/2/4 156/2/4
f 156/2/4 151/2/4 157/2/4
f 158/5/4 159/5/4 161/5/4
f 159/5/4 160/5/4 161/5/4
f 161/5/4 160/5/4 162/5/4
f 163/5/4 164/5/4 166/5/4
f 164/3/4 165/3/4 167/3/4
f 166/5/4 164/5/4 167/5/4
f 167/3/4 165/3/4 168/3/4
f 169/5/4 170/5/4 174/5/4
f 170/3/4 171/3/4 175/3/4
f 174/5/4 170/5/4 175/5/4
f 175/3/4 171/3/4 176/3/4
f 172/1/4 173/1/4 177/1/4
f 177/1/4 173/1/4 178/1/4
f 179/5/4 180/5/4 181/5/4
f 181/5/4 180/5/4 182/5/4
f 185/5/5 184/5/5 183/5/5
f 186/5/5 184/5/5 185/5/5
f 190/5/5 188/5/5 187/5/5
f 191/5/5 188/5/5 190/5/5
f 194/5/5 190/5/5 189/5/5
f 194/5/5 192/5/5 191/5/5
f 194/5/5 191/5/5 190/5/5
f 195/5/5 192/5/5 194/5/5
f 196/5/5 192/5/5 195/5/5
f 197/5/5 192/5/5 196/5/5
f 199/5/5 194/5/5 193/5/5
f 199/5/5 195/5/5 194/5/5
f 200/5/5 195/5/5 199/5/5
f 201/5/5 195/5/5 200/5/5
f 202/5/5 198/5/5 197/5/5
f 202/5/5 197/5/5 196/5/5
f 203/5/5 198/5/5 202/5/5
f 204/5/5 198/5/5 203/5/5
f 205/5/5 201/5/5 200/5/5
f 205/5/5 203/5/5 202/5/5
f 205/5/5 202/5/5 201/5/5
f 206/5/5 203/5/5 205/5/5
f 207/5/5 203/5/5 206/5/5
f 208/5/5 203/5/5 207/5/5
f 209/5/5 207/5/5 206/5/5
f 210/5/5 207/5/5 209/5/5
f 213/2/5 212/2/5 211/2/5
f 214/2/5 212/2/5 213/2/5
f 217/1/5 216/1/5 215/1/5
f 218/1/5 216/1/5 217/1/5
f 221/1/5 220/1/5 219/1/5
f 222/1/5 220/1/5 221/1/5
f 223/5/6 224/5/6 226/5/6
f 226/5/6 224/5/6 227/5/6
f 225/3/6 226/3/6 230/3/6
f 226/4/6 227/4/6 231/4/6
f 230/3/6 226/3/6 231/3/6
f 227/3/6 228/3/6 232/3/6
f 231/4/6 227/4/6 232/4/6
f 232/3/6 228/3/6 233/3/6
f 229/5/6 230/5/6 235/5/6
f 230/4/6 231/4/6 236/4/6
f 235/5/6 230/5/6 236/5/6
f 236/4/6 231/4/6 237/4/6
f 232/4/6 233/4/6 238/4/6
f 233/5/6 234/5/6 239/5/6
f 238/4/6 233/4/6 239/4/6
f 239/5/6 234/5/6 240/5/6
f 236/3/6 237/3/6 241/3/6
f 237/4/6 238/4/6 242/4/6
f 241/3/6 237/3/6 242/3/6
f 238/3/6 239/3/6 243/3/6
f 242/4/6 238/4/6 243/4/6
f 243/3/6 239/3/6 244/3/6
f 242/5/6 243/5/6 245/5/6
f 245/5/6 243/5/6 246/5/6
f 247/2/6 248/2/6 249/2/6
f 249/2/6 248/2/6 250/2/6
f 251/2/6 252/2/6 253/2/6
f 253/2/6 252/2/6 254/2/6
f 255/1/6 256/1/6 257/1/6
f 257/1/6 256/1/6 258/1/6
f 259/1/6 260/1/6 261/1/6
f 261/1/6 260/1/6 262/1/6
