# MagicaVoxel @ Ephtracy

# group
o 

# material
mtllib Candle.mtl
usemtl palette

# normals
vn -1 0 0
vn 1 0 0
vn 0 0 1
vn 0 0 -1
vn 0 -1 0
vn 0 1 0

# texcoords
vt 0.0644531 0.5
vt 0.970703 0.5
vt 0.982422 0.5
vt 0.994141 0.5

# verts
v -0.6 0.1 0.8
v -0.6 0.1 0
v -0.6 0.2 0.8
v -0.6 0.2 0
v -0.5 0 0.7
v -0.5 0 0.1
v -0.5 0.1 0.7
v -0.5 0.1 0.1
v -0.5 0.2 0.5
v -0.5 0.2 0.4
v -0.5 0.5 0.5
v -0.5 0.5 0.4
v -0.4 0.1 0.5
v -0.4 0.1 0.3
v -0.4 0.2 0.6
v -0.4 0.2 0.5
v -0.4 0.2 0.4
v -0.4 0.2 0.3
v -0.4 0.2 0.2
v -0.4 0.3 0.6
v -0.4 0.3 0.5
v -0.4 0.3 0.3
v -0.4 0.3 0.2
v -0.4 0.5 0.5
v -0.4 0.5 0.4
v -0.4 0.6 0.5
v -0.4 0.6 0.3
v -0.3 0.3 0.6
v -0.3 0.3 0.5
v -0.3 0.3 0.3
v -0.3 0.3 0.2
v -0.3 0.6 0.6
v -0.3 0.6 0.5
v -0.3 0.6 0.3
v -0.3 0.6 0.2
v -0.3 0.7 0.5
v -0.3 0.7 0.4
v -0.3 0.8 0.5
v -0.3 0.8 0.4
v -0.2 0.1 1
v -0.2 0.1 0.8
v -0.2 0.2 1.1
v -0.2 0.2 1
v -0.2 0.2 0.8
v -0.2 0.2 0.7
v -0.2 0.3 1.2
v -0.2 0.3 1.1
v -0.2 0.3 1
v -0.2 0.6 0.5
v -0.2 0.6 0.4
v -0.2 0.7 0.6
v -0.2 0.7 0.5
v -0.2 0.7 0.4
v -0.2 0.7 0.3
v -0.2 0.8 1.2
v -0.2 0.8 1.1
v -0.2 0.8 0.8
v -0.2 0.8 0.7
v -0.2 0.8 0.6
v -0.2 0.8 0.5
v -0.2 0.8 0.4
v -0.2 0.8 0.3
v -0.2 0.9 1.1
v -0.2 0.9 0.8
v -0.2 0.9 0.5
v -0.2 0.9 0.4
v -5.96046e-008 0.1 0.7
v -5.96046e-008 0.1 0.6
v -5.96046e-008 0.1 0.2
v -5.96046e-008 0.1 0.1
v -5.96046e-008 0.2 0.7
v -5.96046e-008 0.2 0.6
v -5.96046e-008 0.2 0.2
v -5.96046e-008 0.2 0.1
v 0.1 0.1 0.6
v 0.1 0.1 0.3
v 0.1 0.2 0.6
v 0.1 0.2 0.3
v -0.5 0.1 0.5
v -0.5 0.1 0.3
v -0.5 0.2 0.5
v -0.5 0.2 0.4
v -0.5 0.2 0.3
v -0.2 0.1 0.7
v -0.2 0.1 0.6
v -0.2 0.1 0.2
v -0.2 0.1 0.1
v -0.2 0.2 0.7
v -0.2 0.2 0.6
v -0.2 0.2 0.2
v -0.2 0.2 0.1
v -0.1 0.1 1
v -0.1 0.1 0.8
v -0.1 0.2 1.1
v -0.1 0.2 1
v -0.1 0.2 0.8
v -0.1 0.2 0.7
v -0.1 0.2 0.6
v -0.1 0.2 0.5
v -0.1 0.2 0.3
v -0.1 0.2 0.2
v -0.1 0.3 1.2
v -0.1 0.3 1.1
v -0.1 0.3 1
v -0.1 0.6 0.6
v -0.1 0.6 0.5
v -0.1 0.6 0.4
v -0.1 0.6 0.3
v -0.1 0.6 0.2
v -0.1 0.7 0.6
v -0.1 0.7 0.5
v -0.1 0.7 0.4
v -0.1 0.7 0.3
v -0.1 0.8 1.2
v -0.1 0.8 1.1
v -0.1 0.8 0.8
v -0.1 0.8 0.7
v -0.1 0.8 0.6
v -0.1 0.8 0.5
v -0.1 0.8 0.4
v -0.1 0.8 0.3
v -0.1 0.9 1.1
v -0.1 0.9 0.8
v -0.1 0.9 0.5
v -0.1 0.9 0.4
v -5.96046e-008 0.1 0.6
v -5.96046e-008 0.1 0.3
v -5.96046e-008 0.2 0.6
v -5.96046e-008 0.2 0.5
v -5.96046e-008 0.2 0.3
v -5.96046e-008 0.6 0.5
v -5.96046e-008 0.6 0.3
v -5.96046e-008 0.7 0.5
v -5.96046e-008 0.7 0.4
v -5.96046e-008 0.8 0.5
v -5.96046e-008 0.8 0.4
v 0.1 0 0.7
v 0.1 0 0.1
v 0.1 0.1 0.7
v 0.1 0.1 0.1
v 0.2 0.1 0.8
v 0.2 0.1 0
v 0.2 0.2 0.8
v 0.2 0.2 0
v -0.2 0.3 1.2
v -0.2 0.8 1.2
v -0.1 0.3 1.2
v -0.1 0.8 1.2
v -0.2 0.2 1.1
v -0.2 0.3 1.1
v -0.2 0.8 1.1
v -0.2 0.9 1.1
v -0.1 0.2 1.1
v -0.1 0.3 1.1
v -0.1 0.8 1.1
v -0.1 0.9 1.1
v -0.2 0.1 1
v -0.2 0.2 1
v -0.1 0.1 1
v -0.1 0.2 1
v -0.6 0.1 0.8
v -0.6 0.2 0.8
v -0.2 0.1 0.8
v -0.2 0.2 0.8
v -0.2 0.8 0.8
v -0.1 0.1 0.8
v -0.1 0.2 0.8
v -0.1 0.8 0.8
v 0.2 0.1 0.8
v 0.2 0.2 0.8
v -0.5 0 0.7
v -0.5 0.1 0.7
v 0.1 0 0.7
v 0.1 0.1 0.7
v -0.4 0.2 0.6
v -0.4 0.3 0.6
v -0.3 0.3 0.6
v -0.3 0.6 0.6
v -0.2 0.1 0.6
v -0.2 0.2 0.6
v -0.2 0.7 0.6
v -0.2 0.8 0.6
v -0.1 0.2 0.6
v -0.1 0.6 0.6
v -0.1 0.7 0.6
v -0.1 0.8 0.6
v -5.96046e-008 0.1 0.6
v -5.96046e-008 0.2 0.6
v -0.5 0.2 0.5
v -0.5 0.5 0.5
v -0.4 0.2 0.5
v -0.4 0.3 0.5
v -0.4 0.5 0.5
v -0.4 0.6 0.5
v -0.3 0.3 0.5
v -0.3 0.6 0.5
v -0.3 0.7 0.5
v -0.3 0.8 0.5
v -0.2 0.6 0.5
v -0.2 0.7 0.5
v -0.2 0.8 0.5
v -0.2 0.9 0.5
v -0.1 0.2 0.5
v -0.1 0.6 0.5
v -0.1 0.7 0.5
v -0.1 0.8 0.5
v -0.1 0.9 0.5
v -5.96046e-008 0.2 0.5
v -5.96046e-008 0.6 0.5
v -5.96046e-008 0.7 0.5
v -5.96046e-008 0.8 0.5
v -0.5 0.1 0.3
v -0.5 0.2 0.3
v -0.4 0.1 0.3
v -0.4 0.2 0.3
v -5.96046e-008 0.1 0.3
v -5.96046e-008 0.2 0.3
v 0.1 0.1 0.3
v 0.1 0.2 0.3
v -0.2 0.1 0.1
v -0.2 0.2 0.1
v -5.96046e-008 0.1 0.1
v -5.96046e-008 0.2 0.1
v -0.2 0.3 1.1
v -0.2 0.8 1.1
v -0.1 0.3 1.1
v -0.1 0.8 1.1
v -0.2 0.2 1
v -0.2 0.3 1
v -0.1 0.2 1
v -0.1 0.3 1
v -0.2 0.8 0.8
v -0.2 0.9 0.8
v -0.1 0.8 0.8
v -0.1 0.9 0.8
v -0.2 0.1 0.7
v -0.2 0.2 0.7
v -0.2 0.8 0.7
v -0.1 0.2 0.7
v -0.1 0.8 0.7
v -5.96046e-008 0.1 0.7
v -5.96046e-008 0.2 0.7
v -5.96046e-008 0.1 0.6
v -5.96046e-008 0.2 0.6
v 0.1 0.1 0.6
v 0.1 0.2 0.6
v -0.5 0.1 0.5
v -0.5 0.2 0.5
v -0.4 0.1 0.5
v -0.4 0.2 0.5
v -0.5 0.2 0.4
v -0.5 0.5 0.4
v -0.4 0.2 0.4
v -0.4 0.5 0.4
v -0.3 0.7 0.4
v -0.3 0.8 0.4
v -0.2 0.6 0.4
v -0.2 0.7 0.4
v -0.2 0.8 0.4
v -0.2 0.9 0.4
v -0.1 0.6 0.4
v -0.1 0.7 0.4
v -0.1 0.8 0.4
v -0.1 0.9 0.4
v -5.96046e-008 0.7 0.4
v -5.96046e-008 0.8 0.4
v -0.4 0.3 0.3
v -0.4 0.6 0.3
v -0.3 0.3 0.3
v -0.3 0.6 0.3
v -0.2 0.7 0.3
v -0.2 0.8 0.3
v -0.1 0.2 0.3
v -0.1 0.6 0.3
v -0.1 0.7 0.3
v -0.1 0.8 0.3
v -5.96046e-008 0.2 0.3
v -5.96046e-008 0.6 0.3
v -0.4 0.2 0.2
v -0.4 0.3 0.2
v -0.3 0.3 0.2
v -0.3 0.6 0.2
v -0.2 0.1 0.2
v -0.2 0.2 0.2
v -0.1 0.2 0.2
v -0.1 0.6 0.2
v -5.96046e-008 0.1 0.2
v -5.96046e-008 0.2 0.2
v -0.5 0 0.1
v -0.5 0.1 0.1
v 0.1 0 0.1
v 0.1 0.1 0.1
v -0.6 0.1 0
v -0.6 0.2 0
v 0.2 0.1 0
v 0.2 0.2 0
v -0.5 0 0.7
v 0.1 0 0.7
v -0.5 0 0.1
v 0.1 0 0.1
v -0.2 0.1 1
v -0.1 0.1 1
v -0.6 0.1 0.8
v -0.2 0.1 0.8
v -0.1 0.1 0.8
v 0.2 0.1 0.8
v -0.5 0.1 0.7
v 0.1 0.1 0.7
v -0.5 0.1 0.1
v 0.1 0.1 0.1
v -0.6 0.1 0
v 0.2 0.1 0
v -0.2 0.2 1.1
v -0.1 0.2 1.1
v -0.2 0.2 1
v -0.1 0.2 1
v -0.5 0.2 0.5
v -0.4 0.2 0.5
v -0.5 0.2 0.4
v -0.4 0.2 0.4
v -0.2 0.3 1.2
v -0.1 0.3 1.2
v -0.2 0.3 1.1
v -0.1 0.3 1.1
v -0.2 0.7 0.6
v -0.1 0.7 0.6
v -0.3 0.7 0.5
v -0.2 0.7 0.5
v -0.1 0.7 0.5
v -5.96046e-008 0.7 0.5
v -0.3 0.7 0.4
v -0.2 0.7 0.4
v -0.1 0.7 0.4
v -5.96046e-008 0.7 0.4
v -0.2 0.7 0.3
v -0.1 0.7 0.3
v -0.2 0.8 1.1
v -0.1 0.8 1.1
v -0.2 0.8 0.8
v -0.1 0.8 0.8
v -0.2 0.1 0.7
v -5.96046e-008 0.1 0.7
v -0.2 0.1 0.6
v -5.96046e-008 0.1 0.6
v 0.1 0.1 0.6
v -0.5 0.1 0.5
v -0.4 0.1 0.5
v -0.5 0.1 0.3
v -0.4 0.1 0.3
v -5.96046e-008 0.1 0.3
v 0.1 0.1 0.3
v -0.2 0.1 0.2
v -5.96046e-008 0.1 0.2
v -0.2 0.1 0.1
v -5.96046e-008 0.1 0.1
v -0.2 0.2 1
v -0.1 0.2 1
v -0.6 0.2 0.8
v -0.2 0.2 0.8
v -0.1 0.2 0.8
v 0.2 0.2 0.8
v -0.5 0.2 0.7
v -0.2 0.2 0.7
v -0.1 0.2 0.7
v -5.96046e-008 0.2 0.7
v 0.1 0.2 0.7
v -0.4 0.2 0.6
v -0.2 0.2 0.6
v -0.1 0.2 0.6
v -5.96046e-008 0.2 0.6
v 0.1 0.2 0.6
v -0.5 0.2 0.5
v -0.4 0.2 0.5
v -0.1 0.2 0.5
v -5.96046e-008 0.2 0.5
v -0.5 0.2 0.4
v -0.5 0.2 0.3
v -0.4 0.2 0.3
v -0.1 0.2 0.3
v -5.96046e-008 0.2 0.3
v 0.1 0.2 0.3
v -0.4 0.2 0.2
v -0.2 0.2 0.2
v -0.1 0.2 0.2
v -5.96046e-008 0.2 0.2
v -0.5 0.2 0.1
v -0.2 0.2 0.1
v -5.96046e-008 0.2 0.1
v 0.1 0.2 0.1
v -0.6 0.2 0
v 0.2 0.2 0
v -0.2 0.3 1.1
v -0.1 0.3 1.1
v -0.2 0.3 1
v -0.1 0.3 1
v -0.4 0.3 0.6
v -0.3 0.3 0.6
v -0.4 0.3 0.5
v -0.3 0.3 0.5
v -0.4 0.3 0.3
v -0.3 0.3 0.3
v -0.4 0.3 0.2
v -0.3 0.3 0.2
v -0.5 0.5 0.5
v -0.4 0.5 0.5
v -0.5 0.5 0.4
v -0.4 0.5 0.4
v -0.3 0.6 0.6
v -0.1 0.6 0.6
v -0.4 0.6 0.5
v -0.3 0.6 0.5
v -0.2 0.6 0.5
v -0.1 0.6 0.5
v -5.96046e-008 0.6 0.5
v -0.2 0.6 0.4
v -0.1 0.6 0.4
v -0.4 0.6 0.3
v -0.3 0.6 0.3
v -0.1 0.6 0.3
v -5.96046e-008 0.6 0.3
v -0.3 0.6 0.2
v -0.1 0.6 0.2
v -0.2 0.8 1.2
v -0.1 0.8 1.2
v -0.2 0.8 1.1
v -0.1 0.8 1.1
v -0.2 0.8 0.8
v -0.1 0.8 0.8
v -0.2 0.8 0.7
v -0.1 0.8 0.7
v -0.2 0.8 0.6
v -0.1 0.8 0.6
v -0.3 0.8 0.5
v -0.2 0.8 0.5
v -0.1 0.8 0.5
v -5.96046e-008 0.8 0.5
v -0.3 0.8 0.4
v -0.2 0.8 0.4
v -0.1 0.8 0.4
v -5.96046e-008 0.8 0.4
v -0.2 0.8 0.3
v -0.1 0.8 0.3
v -0.2 0.9 1.1
v -0.1 0.9 1.1
v -0.2 0.9 0.8
v -0.1 0.9 0.8
v -0.2 0.9 0.5
v -0.1 0.9 0.5
v -0.2 0.9 0.4
v -0.1 0.9 0.4

# faces
f 3/3/1 2/3/1 1/3/1
f 4/3/1 2/3/1 3/3/1
f 7/3/1 6/3/1 5/3/1
f 8/3/1 6/3/1 7/3/1
f 11/2/1 10/2/1 9/2/1
f 12/2/1 10/2/1 11/2/1
f 16/2/1 14/2/1 13/2/1
f 17/2/1 14/2/1 16/2/1
f 18/2/1 14/2/1 17/2/1
f 20/2/1 16/2/1 15/2/1
f 21/2/1 16/2/1 20/2/1
f 22/2/1 19/2/1 18/2/1
f 22/2/1 18/2/1 17/2/1
f 23/2/1 19/2/1 22/2/1
f 25/2/1 22/2/1 17/2/1
f 26/2/1 25/2/1 24/2/1
f 27/2/1 22/2/1 25/2/1
f 27/2/1 25/2/1 26/2/1
f 32/2/1 29/2/1 28/2/1
f 33/2/1 29/2/1 32/2/1
f 34/2/1 31/2/1 30/2/1
f 35/2/1 31/2/1 34/2/1
f 38/1/1 37/1/1 36/1/1
f 39/1/1 37/1/1 38/1/1
f 43/3/1 41/3/1 40/3/1
f 44/3/1 41/3/1 43/3/1
f 47/3/1 43/3/1 42/3/1
f 48/3/1 43/3/1 47/3/1
f 52/4/1 50/4/1 49/4/1
f 53/4/1 50/4/1 52/4/1
f 55/3/1 47/3/1 46/3/1
f 56/3/1 47/3/1 55/3/1
f 57/3/1 45/3/1 44/3/1
f 58/3/1 45/3/1 57/3/1
f 59/1/1 52/1/1 51/1/1
f 60/1/1 52/1/1 59/1/1
f 61/1/1 54/1/1 53/1/1
f 62/1/1 54/1/1 61/1/1
f 63/3/1 57/3/1 56/3/1
f 64/3/1 57/3/1 63/3/1
f 65/1/1 61/1/1 60/1/1
f 66/1/1 61/1/1 65/1/1
f 71/2/1 68/2/1 67/2/1
f 72/2/1 68/2/1 71/2/1
f 73/2/1 70/2/1 69/2/1
f 74/2/1 70/2/1 73/2/1
f 77/3/1 76/3/1 75/3/1
f 78/3/1 76/3/1 77/3/1
f 79/3/2 80/3/2 81/3/2
f 81/3/2 80/3/2 82/3/2
f 82/3/2 80/3/2 83/3/2
f 84/2/2 85/2/2 88/2/2
f 88/2/2 85/2/2 89/2/2
f 86/2/2 87/2/2 90/2/2
f 90/2/2 87/2/2 91/2/2
f 92/3/2 93/3/2 95/3/2
f 95/3/2 93/3/2 96/3/2
f 94/3/2 95/3/2 103/3/2
f 103/3/2 95/3/2 104/3/2
f 98/2/2 99/2/2 105/2/2
f 105/2/2 99/2/2 106/2/2
f 100/2/2 101/2/2 108/2/2
f 108/2/2 101/2/2 109/2/2
f 106/4/2 107/4/2 111/4/2
f 111/4/2 107/4/2 112/4/2
f 102/3/2 103/3/2 114/3/2
f 114/3/2 103/3/2 115/3/2
f 96/3/2 97/3/2 116/3/2
f 116/3/2 97/3/2 117/3/2
f 110/1/2 111/1/2 118/1/2
f 118/1/2 111/1/2 119/1/2
f 112/1/2 113/1/2 120/1/2
f 120/1/2 113/1/2 121/1/2
f 115/3/2 116/3/2 122/3/2
f 122/3/2 116/3/2 123/3/2
f 119/1/2 120/1/2 124/1/2
f 124/1/2 120/1/2 125/1/2
f 126/2/2 127/2/2 128/2/2
f 128/2/2 127/2/2 129/2/2
f 129/2/2 127/2/2 130/2/2
f 129/2/2 130/2/2 131/2/2
f 131/2/2 130/2/2 132/2/2
f 133/1/2 134/1/2 135/1/2
f 135/1/2 134/1/2 136/1/2
f 137/3/2 138/3/2 139/3/2
f 139/3/2 138/3/2 140/3/2
f 141/3/2 142/3/2 143/3/2
f 143/3/2 142/3/2 144/3/2
f 147/3/3 146/3/3 145/3/3
f 148/3/3 146/3/3 147/3/3
f 153/3/3 150/3/3 149/3/3
f 154/3/3 150/3/3 153/3/3
f 155/3/3 152/3/3 151/3/3
f 156/3/3 152/3/3 155/3/3
f 159/3/3 158/3/3 157/3/3
f 160/3/3 158/3/3 159/3/3
f 163/3/3 162/3/3 161/3/3
f 164/3/3 162/3/3 163/3/3
f 167/3/3 165/3/3 164/3/3
f 168/3/3 165/3/3 167/3/3
f 169/3/3 167/3/3 166/3/3
f 170/3/3 167/3/3 169/3/3
f 173/3/3 172/3/3 171/3/3
f 174/3/3 172/3/3 173/3/3
f 177/2/3 176/2/3 175/2/3
f 180/2/3 177/2/3 175/2/3
f 180/2/3 178/2/3 177/2/3
f 183/2/3 178/2/3 180/2/3
f 183/2/3 180/2/3 179/2/3
f 184/2/3 178/2/3 183/2/3
f 185/1/3 182/1/3 181/1/3
f 186/1/3 182/1/3 185/1/3
f 187/2/3 183/2/3 179/2/3
f 188/2/3 183/2/3 187/2/3
f 191/2/3 190/2/3 189/2/3
f 192/2/3 190/2/3 191/2/3
f 193/2/3 190/2/3 192/2/3
f 195/2/3 194/2/3 193/2/3
f 195/2/3 193/2/3 192/2/3
f 196/2/3 194/2/3 195/2/3
f 200/1/3 198/1/3 197/1/3
f 201/1/3 198/1/3 200/1/3
f 204/4/3 200/4/3 199/4/3
f 205/4/3 200/4/3 204/4/3
f 206/1/3 202/1/3 201/1/3
f 207/1/3 202/1/3 206/1/3
f 208/2/3 204/2/3 203/2/3
f 209/2/3 204/2/3 208/2/3
f 210/1/3 206/1/3 205/1/3
f 211/1/3 206/1/3 210/1/3
f 214/2/3 213/2/3 212/2/3
f 215/2/3 213/2/3 214/2/3
f 218/2/3 217/2/3 216/2/3
f 219/2/3 217/2/3 218/2/3
f 222/3/3 221/3/3 220/3/3
f 223/3/3 221/3/3 222/3/3
f 224/3/4 225/3/4 226/3/4
f 226/3/4 225/3/4 227/3/4
f 228/3/4 229/3/4 230/3/4
f 230/3/4 229/3/4 231/3/4
f 232/3/4 233/3/4 234/3/4
f 234/3/4 233/3/4 235/3/4
f 236/3/4 237/3/4 239/3/4
f 237/3/4 238/3/4 239/3/4
f 239/3/4 238/3/4 240/3/4
f 236/3/4 239/3/4 241/3/4
f 241/3/4 239/3/4 242/3/4
f 243/2/4 244/2/4 245/2/4
f 245/2/4 244/2/4 246/2/4
f 247/2/4 248/2/4 249/2/4
f 249/2/4 248/2/4 250/2/4
f 251/2/4 252/2/4 253/2/4
f 253/2/4 252/2/4 254/2/4
f 255/1/4 256/1/4 258/1/4
f 258/1/4 256/1/4 259/1/4
f 257/4/4 258/4/4 261/4/4
f 261/4/4 258/4/4 262/4/4
f 259/1/4 260/1/4 263/1/4
f 263/1/4 260/1/4 264/1/4
f 262/1/4 263/1/4 265/1/4
f 265/1/4 263/1/4 266/1/4
f 267/2/4 268/2/4 269/2/4
f 269/2/4 268/2/4 270/2/4
f 271/1/4 272/1/4 275/1/4
f 275/1/4 272/1/4 276/1/4
f 273/2/4 274/2/4 277/2/4
f 277/2/4 274/2/4 278/2/4
f 279/2/4 280/2/4 281/2/4
f 279/2/4 281/2/4 284/2/4
f 281/2/4 282/2/4 284/2/4
f 284/2/4 282/2/4 285/2/4
f 283/2/4 284/2/4 285/2/4
f 285/2/4 282/2/4 286/2/4
f 283/2/4 285/2/4 287/2/4
f 287/2/4 285/2/4 288/2/4
f 289/3/4 290/3/4 291/3/4
f 291/3/4 290/3/4 292/3/4
f 293/3/4 294/3/4 295/3/4
f 295/3/4 294/3/4 296/3/4
f 299/3/5 298/3/5 297/3/5
f 300/3/5 298/3/5 299/3/5
f 304/3/5 302/3/5 301/3/5
f 305/3/5 302/3/5 304/3/5
f 307/3/5 304/3/5 303/3/5
f 307/3/5 306/3/5 305/3/5
f 307/3/5 305/3/5 304/3/5
f 308/3/5 306/3/5 307/3/5
f 309/3/5 307/3/5 303/3/5
f 310/3/5 306/3/5 308/3/5
f 311/3/5 309/3/5 303/3/5
f 311/3/5 310/3/5 309/3/5
f 312/3/5 306/3/5 310/3/5
f 312/3/5 310/3/5 311/3/5
f 315/3/5 314/3/5 313/3/5
f 316/3/5 314/3/5 315/3/5
f 319/2/5 318/2/5 317/2/5
f 320/2/5 318/2/5 319/2/5
f 323/3/5 322/3/5 321/3/5
f 324/3/5 322/3/5 323/3/5
f 328/1/5 326/1/5 325/1/5
f 329/1/5 326/1/5 328/1/5
f 331/1/5 328/1/5 327/1/5
f 332/1/5 328/1/5 331/1/5
f 333/1/5 330/1/5 329/1/5
f 334/1/5 330/1/5 333/1/5
f 335/1/5 333/1/5 332/1/5
f 336/1/5 333/1/5 335/1/5
f 339/3/5 338/3/5 337/3/5
f 340/3/5 338/3/5 339/3/5
f 341/3/6 342/3/6 343/3/6
f 343/3/6 342/3/6 344/3/6
f 346/3/6 347/3/6 348/3/6
f 348/3/6 347/3/6 349/3/6
f 344/3/6 345/3/6 350/3/6
f 350/3/6 345/3/6 351/3/6
f 352/3/6 353/3/6 354/3/6
f 354/3/6 353/3/6 355/3/6
f 356/3/6 357/3/6 359/3/6
f 359/3/6 357/3/6 360/3/6
f 358/3/6 359/3/6 362/3/6
f 362/3/6 359/3/6 363/3/6
f 360/3/6 361/3/6 364/3/6
f 364/3/6 361/3/6 365/3/6
f 365/3/6 361/3/6 366/3/6
f 362/2/6 363/2/6 367/2/6
f 367/2/6 363/2/6 368/2/6
f 365/2/6 366/2/6 370/2/6
f 366/3/6 361/3/6 371/3/6
f 370/2/6 366/2/6 371/2/6
f 358/3/6 362/3/6 372/3/6
f 362/2/6 367/2/6 372/2/6
f 372/2/6 367/2/6 373/2/6
f 369/2/6 370/2/6 374/2/6
f 374/2/6 370/2/6 375/2/6
f 358/3/6 372/3/6 376/3/6
f 358/3/6 376/3/6 377/3/6
f 371/3/6 361/3/6 381/3/6
f 377/2/6 378/2/6 382/2/6
f 379/2/6 380/2/6 384/2/6
f 380/2/6 381/2/6 384/2/6
f 384/2/6 381/2/6 385/2/6
f 382/2/6 383/2/6 386/2/6
f 377/2/6 382/2/6 386/2/6
f 358/3/6 377/3/6 386/3/6
f 386/2/6 383/2/6 387/2/6
f 385/2/6 381/2/6 388/2/6
f 381/3/6 361/3/6 389/3/6
f 388/2/6 381/2/6 389/2/6
f 386/3/6 387/3/6 390/3/6
f 387/3/6 388/3/6 390/3/6
f 388/3/6 389/3/6 390/3/6
f 358/3/6 386/3/6 390/3/6
f 389/3/6 361/3/6 391/3/6
f 390/3/6 389/3/6 391/3/6
f 392/3/6 393/3/6 394/3/6
f 394/3/6 393/3/6 395/3/6
f 396/2/6 397/2/6 398/2/6
f 398/2/6 397/2/6 399/2/6
f 400/2/6 401/2/6 402/2/6
f 402/2/6 401/2/6 403/2/6
f 404/2/6 405/2/6 406/2/6
f 406/2/6 405/2/6 407/2/6
f 408/2/6 409/2/6 411/2/6
f 411/2/6 409/2/6 412/2/6
f 412/2/6 409/2/6 413/2/6
f 410/2/6 411/2/6 415/2/6
f 411/2/6 412/2/6 415/2/6
f 413/2/6 414/2/6 416/2/6
f 410/2/6 415/2/6 417/2/6
f 415/2/6 416/2/6 417/2/6
f 417/2/6 416/2/6 418/2/6
f 416/2/6 414/2/6 419/2/6
f 418/2/6 416/2/6 419/2/6
f 419/2/6 414/2/6 420/2/6
f 418/2/6 419/2/6 421/2/6
f 421/2/6 419/2/6 422/2/6
f 423/3/6 424/3/6 425/3/6
f 425/3/6 424/3/6 426/3/6
f 427/3/6 428/3/6 429/3/6
f 429/3/6 428/3/6 430/3/6
f 431/1/6 432/1/6 434/1/6
f 434/1/6 432/1/6 435/1/6
f 433/1/6 434/1/6 437/1/6
f 437/1/6 434/1/6 438/1/6
f 435/1/6 436/1/6 439/1/6
f 439/1/6 436/1/6 440/1/6
f 438/1/6 439/1/6 441/1/6
f 441/1/6 439/1/6 442/1/6
f 443/3/6 444/3/6 445/3/6
f 445/3/6 444/3/6 446/3/6
f 447/1/6 448/1/6 449/1/6
f 449/1/6 448/1/6 450/1/6
