# MagicaVoxel @ Ephtracy

# group
o 

# material
mtllib Coal Ore.mtl
usemtl palette

# normals
vn -1 0 0
vn 1 0 0
vn 0 0 1
vn 0 0 -1
vn 0 -1 0
vn 0 1 0

# texcoords
vt 0.986328 0.5
vt 0.994141 0.5

# verts
v -0.9 0 0.6
v -0.9 0 0.3
v -0.9 0 -0.3
v -0.9 0.1 0.6
v -0.9 0.1 0.3
v -0.9 0.2 0.3
v -0.9 0.2 0.1
v -0.9 0.2 -0.1
v -0.9 0.2 -0.3
v -0.9 0.3 0.1
v -0.9 0.3 -0.1
v -0.8 0 0.7
v -0.8 0 0.6
v -0.8 0.1 0.7
v -0.8 0.1 0.6
v -0.8 0.1 0.4
v -0.8 0.1 0.3
v -0.8 0.2 0.6
v -0.8 0.2 0.4
v -0.8 0.2 0.3
v -0.8 0.2 0.1
v -0.8 0.2 -0.1
v -0.8 0.2 -0.2
v -0.8 0.3 0.4
v -0.8 0.3 0.1
v -0.8 0.3 -0.1
v -0.8 0.3 -0.2
v -0.8 0.4 0.1
v -0.8 0.4 -0.1
v -0.7 0.2 0.6
v -0.7 0.2 0.4
v -0.7 0.3 0.6
v -0.7 0.3 0.4
v -0.7 0.3 0.1
v -0.7 0.4 0.1
v -0.7 0.4 -0.1
v -0.7 0.5 0.4
v -0.7 0.5 -0.1
v -0.5 0 -0.2
v -0.5 0 -0.3
v -0.5 0.1 0.7
v -0.5 0.1 0.6
v -0.5 0.3 0.6
v -0.5 0.3 0.4
v -0.5 0.3 -0.1
v -0.5 0.3 -0.2
v -0.5 0.3 -0.3
v -0.5 0.4 0.7
v -0.5 0.4 0.4
v -0.5 0.4 -0.1
v -0.5 0.4 -0.2
v -0.5 0.5 0.2
v -0.5 0.5 0
v -0.5 0.6 0.2
v -0.5 0.6 0
v -0.4 0 0.8
v -0.4 0 0.7
v -0.4 0.3 0.8
v -0.4 0.3 0.7
v -0.4 0.4 0.6
v -0.4 0.4 0.4
v -0.4 0.5 0.6
v -0.4 0.5 0.4
v -0.3 0 0.9
v -0.3 0 0.8
v -0.3 0.1 0.9
v -0.3 0.1 0.8
v -0.3 0.4 -0.1
v -0.3 0.4 -0.2
v -0.3 0.5 -0.1
v -0.3 0.5 -0.2
v -0.7 0 -0.2
v -0.7 0 -0.3
v -0.7 0.2 -0.2
v -0.7 0.2 -0.3
v -0.2 0 0.9
v -0.2 0 0.8
v -0.2 0.1 0.9
v -0.2 0.1 0.8
v -0.1 0 0.8
v -0.1 0 0.7
v -0.1 0 -0.2
v -0.1 0 -0.3
v -0.1 0.3 0.8
v -0.1 0.3 0.7
v -0.1 0.3 -0.2
v -0.1 0.3 -0.3
v -0.1 0.4 0.6
v -0.1 0.4 0.4
v -0.1 0.4 -0.1
v -0.1 0.4 -0.2
v -0.1 0.5 0.6
v -0.1 0.5 0.4
v -0.1 0.5 0.2
v -0.1 0.5 0
v -0.1 0.5 -0.1
v -0.1 0.5 -0.2
v -0.1 0.6 0.2
v -0.1 0.6 0
v 0 0.1 0.7
v 0 0.1 0.6
v 0 0.2 0.6
v 0 0.2 0.4
v 0 0.2 -0.1
v 0 0.2 -0.2
v 0 0.4 0.7
v 0 0.4 0.4
v 0 0.4 0.3
v 0 0.4 0
v 0 0.4 -0.1
v 0 0.4 -0.2
v 0 0.5 0.4
v 0 0.5 0.3
v 0 0.5 0
v 0 0.5 -0.1
v 0.1 0 0.7
v 0.1 0 0.4
v 0.1 0 -0.1
v 0.1 0 -0.2
v 0.1 0.1 0.7
v 0.1 0.1 0.6
v 0.1 0.2 0.6
v 0.1 0.2 0.4
v 0.1 0.2 -0.1
v 0.1 0.2 -0.2
v 0.1 0.4 0.3
v 0.1 0.4 0
v 0.1 0.5 0.3
v 0.1 0.5 0
v 0.2 0 0.1
v 0.2 0 -0.1
v 0.2 0.2 0.4
v 0.2 0.2 0.1
v 0.2 0.4 0.4
v 0.2 0.4 -0.1
v 0.3 0 0.4
v 0.3 0 0.1
v 0.3 0.2 0.4
v 0.3 0.2 0.1
v -0.3 0 0.9
v -0.3 0.1 0.9
v -0.2 0 0.9
v -0.2 0.1 0.9
v -0.4 0 0.8
v -0.4 0.3 0.8
v -0.3 0 0.8
v -0.3 0.1 0.8
v -0.2 0 0.8
v -0.2 0.1 0.8
v -0.1 0 0.8
v -0.1 0.3 0.8
v -0.8 0 0.7
v -0.8 0.1 0.7
v -0.5 0.1 0.7
v -0.5 0.4 0.7
v -0.4 0 0.7
v -0.4 0.3 0.7
v -0.1 0 0.7
v -0.1 0.3 0.7
v 0 0.1 0.7
v 0 0.4 0.7
v 0.1 0 0.7
v 0.1 0.1 0.7
v -0.9 0 0.6
v -0.9 0.1 0.6
v -0.8 0 0.6
v -0.8 0.1 0.6
v -0.8 0.2 0.6
v -0.7 0.1 0.6
v -0.7 0.2 0.6
v -0.7 0.3 0.6
v -0.5 0.1 0.6
v -0.5 0.3 0.6
v -0.4 0.4 0.6
v -0.4 0.5 0.6
v -0.1 0.4 0.6
v -0.1 0.5 0.6
v 0 0.1 0.6
v 0 0.2 0.6
v 0.1 0.1 0.6
v 0.1 0.2 0.6
v -0.8 0.2 0.4
v -0.8 0.3 0.4
v -0.7 0.2 0.4
v -0.7 0.3 0.4
v -0.7 0.5 0.4
v -0.5 0.3 0.4
v -0.5 0.4 0.4
v -0.4 0.4 0.4
v -0.4 0.5 0.4
v -0.1 0.4 0.4
v -0.1 0.5 0.4
v 0 0.2 0.4
v 0 0.4 0.4
v 0 0.5 0.4
v 0.1 0 0.4
v 0.1 0.2 0.4
v 0.2 0 0.4
v 0.2 0.2 0.4
v 0.2 0.4 0.4
v 0.3 0 0.4
v 0.3 0.2 0.4
v -0.9 0.1 0.3
v -0.9 0.2 0.3
v -0.8 0.1 0.3
v -0.8 0.2 0.3
v 0 0.4 0.3
v 0 0.5 0.3
v 0.1 0.4 0.3
v 0.1 0.5 0.3
v -0.5 0.5 0.2
v -0.5 0.6 0.2
v -0.1 0.5 0.2
v -0.1 0.6 0.2
v -0.9 0.2 0.1
v -0.9 0.3 0.1
v -0.8 0.2 0.1
v -0.8 0.3 0.1
v -0.8 0.4 0.1
v -0.7 0.3 0.1
v -0.7 0.4 0.1
v 0.2 0 0.1
v 0.2 0.2 0.1
v 0.3 0 0.1
v 0.3 0.2 0.1
v -0.5 0.5 0
v -0.5 0.6 0
v -0.1 0.5 0
v -0.1 0.6 0
v 0 0.4 0
v 0 0.5 0
v 0.1 0.4 0
v 0.1 0.5 0
v -0.9 0.2 -0.1
v -0.9 0.3 -0.1
v -0.8 0.2 -0.1
v -0.8 0.3 -0.1
v -0.8 0.4 -0.1
v -0.7 0.3 -0.1
v -0.7 0.4 -0.1
v -0.7 0.5 -0.1
v -0.5 0.3 -0.1
v -0.5 0.4 -0.1
v -0.3 0.4 -0.1
v -0.3 0.5 -0.1
v -0.1 0.4 -0.1
v -0.1 0.5 -0.1
v 0 0.2 -0.1
v 0 0.4 -0.1
v 0 0.5 -0.1
v 0.1 0 -0.1
v 0.1 0.2 -0.1
v 0.2 0 -0.1
v 0.2 0.4 -0.1
v -0.8 0.2 -0.2
v -0.8 0.3 -0.2
v -0.7 0 -0.2
v -0.7 0.2 -0.2
v -0.5 0 -0.2
v -0.5 0.3 -0.2
v -0.5 0.4 -0.2
v -0.3 0.4 -0.2
v -0.3 0.5 -0.2
v -0.1 0 -0.2
v -0.1 0.3 -0.2
v -0.1 0.4 -0.2
v -0.1 0.5 -0.2
v 0 0.2 -0.2
v 0 0.4 -0.2
v 0.1 0 -0.2
v 0.1 0.2 -0.2
v -0.9 0 -0.3
v -0.9 0.2 -0.3
v -0.7 0 -0.3
v -0.7 0.2 -0.3
v -0.5 0 -0.3
v -0.5 0.3 -0.3
v -0.1 0 -0.3
v -0.1 0.3 -0.3
v -0.3 0 0.9
v -0.2 0 0.9
v -0.4 0 0.8
v -0.3 0 0.8
v -0.2 0 0.8
v -0.1 0 0.8
v -0.8 0 0.7
v -0.4 0 0.7
v -0.1 0 0.7
v 0.1 0 0.7
v -0.9 0 0.6
v -0.8 0 0.6
v 0.1 0 0.4
v 0.2 0 0.4
v 0.3 0 0.4
v -0.9 0 0.3
v -0.8 0 0.3
v 0.2 0 0.1
v 0.3 0 0.1
v 0.1 0 -0.1
v 0.2 0 -0.1
v -0.7 0 -0.2
v -0.5 0 -0.2
v -0.1 0 -0.2
v 0.1 0 -0.2
v -0.9 0 -0.3
v -0.7 0 -0.3
v -0.5 0 -0.3
v -0.1 0 -0.3
v -0.3 0.1 0.9
v -0.2 0.1 0.9
v -0.3 0.1 0.8
v -0.2 0.1 0.8
v -0.8 0.1 0.7
v -0.5 0.1 0.7
v 0 0.1 0.7
v 0.1 0.1 0.7
v -0.9 0.1 0.6
v -0.8 0.1 0.6
v -0.7 0.1 0.6
v -0.5 0.1 0.6
v 0 0.1 0.6
v 0.1 0.1 0.6
v -0.8 0.1 0.4
v -0.9 0.1 0.3
v -0.8 0.1 0.3
v -0.8 0.2 0.6
v -0.7 0.2 0.6
v 0 0.2 0.6
v 0.1 0.2 0.6
v -0.8 0.2 0.4
v -0.7 0.2 0.4
v 0 0.2 0.4
v 0.1 0.2 0.4
v 0.2 0.2 0.4
v 0.3 0.2 0.4
v -0.9 0.2 0.3
v -0.8 0.2 0.3
v -0.9 0.2 0.1
v -0.8 0.2 0.1
v 0.2 0.2 0.1
v 0.3 0.2 0.1
v -0.9 0.2 -0.1
v -0.8 0.2 -0.1
v 0 0.2 -0.1
v 0.1 0.2 -0.1
v -0.8 0.2 -0.2
v -0.7 0.2 -0.2
v 0 0.2 -0.2
v 0.1 0.2 -0.2
v -0.9 0.2 -0.3
v -0.7 0.2 -0.3
v -0.4 0.3 0.8
v -0.1 0.3 0.8
v -0.4 0.3 0.7
v -0.1 0.3 0.7
v -0.7 0.3 0.6
v -0.5 0.3 0.6
v -0.8 0.3 0.4
v -0.7 0.3 0.4
v -0.5 0.3 0.4
v -0.9 0.3 0.1
v -0.8 0.3 0.1
v -0.7 0.3 0.1
v -0.9 0.3 -0.1
v -0.8 0.3 -0.1
v -0.7 0.3 -0.1
v -0.5 0.3 -0.1
v -0.8 0.3 -0.2
v -0.5 0.3 -0.2
v -0.1 0.3 -0.2
v -0.5 0.3 -0.3
v -0.1 0.3 -0.3
v -0.5 0.4 0.7
v 0 0.4 0.7
v -0.4 0.4 0.6
v -0.1 0.4 0.6
v -0.5 0.4 0.4
v -0.4 0.4 0.4
v -0.1 0.4 0.4
v 0 0.4 0.4
v 0.2 0.4 0.4
v 0 0.4 0.3
v 0.1 0.4 0.3
v -0.8 0.4 0.1
v -0.7 0.4 0.1
v 0 0.4 0
v 0.1 0.4 0
v -0.8 0.4 -0.1
v -0.7 0.4 -0.1
v -0.5 0.4 -0.1
v -0.3 0.4 -0.1
v -0.1 0.4 -0.1
v 0 0.4 -0.1
v 0.2 0.4 -0.1
v -0.5 0.4 -0.2
v -0.3 0.4 -0.2
v -0.1 0.4 -0.2
v 0 0.4 -0.2
v -0.4 0.5 0.6
v -0.1 0.5 0.6
v -0.7 0.5 0.4
v -0.4 0.5 0.4
v -0.1 0.5 0.4
v 0 0.5 0.4
v 0 0.5 0.3
v 0.1 0.5 0.3
v -0.5 0.5 0.2
v -0.1 0.5 0.2
v -0.5 0.5 0
v -0.1 0.5 0
v 0 0.5 0
v 0.1 0.5 0
v -0.7 0.5 -0.1
v -0.3 0.5 -0.1
v -0.1 0.5 -0.1
v 0 0.5 -0.1
v -0.3 0.5 -0.2
v -0.1 0.5 -0.2
v -0.5 0.6 0.2
v -0.1 0.6 0.2
v -0.5 0.6 0
v -0.1 0.6 0

# faces
f 4/2/1 2/2/1 1/2/1
f 5/1/1 3/1/1 2/1/1
f 5/2/1 2/2/1 4/2/1
f 6/1/1 3/1/1 5/1/1
f 7/1/1 3/1/1 6/1/1
f 8/1/1 3/1/1 7/1/1
f 9/1/1 3/1/1 8/1/1
f 10/2/1 8/2/1 7/2/1
f 11/2/1 8/2/1 10/2/1
f 14/1/1 13/1/1 12/1/1
f 15/1/1 13/1/1 14/1/1
f 18/2/1 16/2/1 15/2/1
f 19/1/1 17/1/1 16/1/1
f 19/2/1 16/2/1 18/2/1
f 20/1/1 17/1/1 19/1/1
f 24/1/1 20/1/1 19/1/1
f 24/1/1 21/1/1 20/1/1
f 25/1/1 21/1/1 24/1/1
f 26/1/1 23/1/1 22/1/1
f 27/1/1 23/1/1 26/1/1
f 28/2/1 26/2/1 25/2/1
f 29/2/1 26/2/1 28/2/1
f 32/1/1 31/1/1 30/1/1
f 33/1/1 31/1/1 32/1/1
f 35/1/1 34/1/1 33/1/1
f 37/1/1 35/1/1 33/1/1
f 37/1/1 36/1/1 35/1/1
f 38/1/1 36/1/1 37/1/1
f 43/1/1 42/1/1 41/1/1
f 46/1/1 40/1/1 39/1/1
f 47/1/1 40/1/1 46/1/1
f 48/1/1 44/1/1 43/1/1
f 48/1/1 43/1/1 41/1/1
f 49/1/1 44/1/1 48/1/1
f 50/1/1 46/1/1 45/1/1
f 51/1/1 46/1/1 50/1/1
f 54/2/1 53/2/1 52/2/1
f 55/2/1 53/2/1 54/2/1
f 58/1/1 57/1/1 56/1/1
f 59/1/1 57/1/1 58/1/1
f 62/2/1 61/2/1 60/2/1
f 63/2/1 61/2/1 62/2/1
f 66/2/1 65/2/1 64/2/1
f 67/2/1 65/2/1 66/2/1
f 70/2/1 69/2/1 68/2/1
f 71/2/1 69/2/1 70/2/1
f 72/1/2 73/1/2 74/1/2
f 74/1/2 73/1/2 75/1/2
f 76/2/2 77/2/2 78/2/2
f 78/2/2 77/2/2 79/2/2
f 80/1/2 81/1/2 84/1/2
f 84/1/2 81/1/2 85/1/2
f 82/1/2 83/1/2 86/1/2
f 86/1/2 83/1/2 87/1/2
f 88/2/2 89/2/2 92/2/2
f 92/2/2 89/2/2 93/2/2
f 90/2/2 91/2/2 96/2/2
f 96/2/2 91/2/2 97/2/2
f 94/2/2 95/2/2 98/2/2
f 98/2/2 95/2/2 99/2/2
f 100/1/2 101/1/2 102/1/2
f 100/1/2 102/1/2 106/1/2
f 102/1/2 103/1/2 106/1/2
f 106/1/2 103/1/2 107/1/2
f 104/1/2 105/1/2 110/1/2
f 110/1/2 105/1/2 111/1/2
f 107/1/2 108/1/2 112/1/2
f 112/1/2 108/1/2 113/1/2
f 109/1/2 110/1/2 114/1/2
f 114/1/2 110/1/2 115/1/2
f 116/1/2 117/1/2 120/1/2
f 120/1/2 117/1/2 121/1/2
f 121/1/2 117/1/2 122/1/2
f 122/1/2 117/1/2 123/1/2
f 118/1/2 119/1/2 124/1/2
f 124/1/2 119/1/2 125/1/2
f 126/2/2 127/2/2 128/2/2
f 128/2/2 127/2/2 129/2/2
f 130/1/2 131/1/2 133/1/2
f 132/1/2 133/1/2 134/1/2
f 133/1/2 131/1/2 135/1/2
f 134/1/2 133/1/2 135/1/2
f 136/2/2 137/2/2 138/2/2
f 138/2/2 137/2/2 139/2/2
f 142/2/3 141/2/3 140/2/3
f 143/2/3 141/2/3 142/2/3
f 146/1/3 145/1/3 144/1/3
f 147/1/3 145/1/3 146/1/3
f 149/1/3 145/1/3 147/1/3
f 150/1/3 149/1/3 148/1/3
f 151/1/3 145/1/3 149/1/3
f 151/1/3 149/1/3 150/1/3
f 154/1/3 153/1/3 152/1/3
f 156/1/3 154/1/3 152/1/3
f 156/1/3 155/1/3 154/1/3
f 157/1/3 155/1/3 156/1/3
f 159/1/3 155/1/3 157/1/3
f 160/1/3 159/1/3 158/1/3
f 161/1/3 155/1/3 159/1/3
f 161/1/3 159/1/3 160/1/3
f 162/1/3 160/1/3 158/1/3
f 163/1/3 160/1/3 162/1/3
f 166/2/3 165/2/3 164/2/3
f 167/2/3 165/2/3 166/2/3
f 169/2/3 168/2/3 167/2/3
f 170/2/3 168/2/3 169/2/3
f 172/1/3 170/1/3 169/1/3
f 172/1/3 171/1/3 170/1/3
f 173/1/3 171/1/3 172/1/3
f 176/2/3 175/2/3 174/2/3
f 177/2/3 175/2/3 176/2/3
f 180/1/3 179/1/3 178/1/3
f 181/1/3 179/1/3 180/1/3
f 184/1/3 183/1/3 182/1/3
f 185/1/3 183/1/3 184/1/3
f 187/1/3 186/1/3 185/1/3
f 188/1/3 186/1/3 187/1/3
f 189/1/3 186/1/3 188/1/3
f 190/1/3 186/1/3 189/1/3
f 194/1/3 192/1/3 191/1/3
f 195/1/3 192/1/3 194/1/3
f 197/1/3 194/1/3 193/1/3
f 198/1/3 197/1/3 196/1/3
f 199/1/3 194/1/3 197/1/3
f 199/1/3 197/1/3 198/1/3
f 200/1/3 194/1/3 199/1/3
f 201/2/3 199/2/3 198/2/3
f 202/2/3 199/2/3 201/2/3
f 205/1/3 204/1/3 203/1/3
f 206/1/3 204/1/3 205/1/3
f 209/2/3 208/2/3 207/2/3
f 210/2/3 208/2/3 209/2/3
f 213/2/3 212/2/3 211/2/3
f 214/2/3 212/2/3 213/2/3
f 217/2/3 216/2/3 215/2/3
f 218/2/3 216/2/3 217/2/3
f 220/2/3 219/2/3 218/2/3
f 221/2/3 219/2/3 220/2/3
f 222/2/4 223/2/4 224/2/4
f 224/2/4 223/2/4 225/2/4
f 226/2/4 227/2/4 228/2/4
f 228/2/4 227/2/4 229/2/4
f 230/2/4 231/2/4 232/2/4
f 232/2/4 231/2/4 233/2/4
f 234/2/4 235/2/4 236/2/4
f 236/2/4 235/2/4 237/2/4
f 237/2/4 238/2/4 239/2/4
f 239/2/4 238/2/4 240/2/4
f 239/1/4 240/1/4 242/1/4
f 240/1/4 241/1/4 242/1/4
f 242/1/4 241/1/4 243/1/4
f 243/1/4 241/1/4 244/1/4
f 244/1/4 241/1/4 245/1/4
f 246/1/4 247/1/4 249/1/4
f 249/1/4 247/1/4 250/1/4
f 248/1/4 249/1/4 252/1/4
f 251/1/4 252/1/4 253/1/4
f 252/1/4 249/1/4 254/1/4
f 253/1/4 252/1/4 254/1/4
f 255/1/4 256/1/4 258/1/4
f 257/1/4 258/1/4 259/1/4
f 258/1/4 256/1/4 260/1/4
f 259/1/4 258/1/4 260/1/4
f 260/1/4 261/1/4 262/1/4
f 260/1/4 262/1/4 265/1/4
f 262/2/4 263/2/4 266/2/4
f 265/1/4 262/1/4 266/1/4
f 266/2/4 263/2/4 267/2/4
f 264/1/4 265/1/4 268/1/4
f 265/1/4 266/1/4 268/1/4
f 268/1/4 266/1/4 269/1/4
f 264/1/4 268/1/4 270/1/4
f 270/1/4 268/1/4 271/1/4
f 272/1/4 273/1/4 274/1/4
f 274/1/4 273/1/4 275/1/4
f 276/1/4 277/1/4 278/1/4
f 278/1/4 277/1/4 279/1/4
f 283/2/5 281/2/5 280/2/5
f 284/2/5 281/2/5 283/2/5
f 287/1/5 283/1/5 282/1/5
f 287/1/5 285/1/5 284/1/5
f 287/1/5 284/1/5 283/1/5
f 288/1/5 285/1/5 287/1/5
f 291/1/5 287/1/5 286/1/5
f 291/1/5 289/1/5 288/1/5
f 291/1/5 288/1/5 287/1/5
f 292/1/5 289/1/5 291/1/5
f 295/2/5 291/2/5 290/2/5
f 296/1/5 292/1/5 291/1/5
f 296/2/5 291/2/5 295/2/5
f 296/1/5 293/1/5 292/1/5
f 297/2/5 294/2/5 293/2/5
f 297/1/5 293/1/5 296/1/5
f 297/1/5 296/1/5 295/1/5
f 298/2/5 294/2/5 297/2/5
f 299/1/5 297/1/5 295/1/5
f 300/1/5 297/1/5 299/1/5
f 301/1/5 299/1/5 295/1/5
f 302/1/5 299/1/5 301/1/5
f 303/1/5 299/1/5 302/1/5
f 304/1/5 299/1/5 303/1/5
f 305/1/5 301/1/5 295/1/5
f 306/1/5 301/1/5 305/1/5
f 307/1/5 303/1/5 302/1/5
f 308/1/5 303/1/5 307/1/5
f 309/2/6 310/2/6 311/2/6
f 311/2/6 310/2/6 312/2/6
f 313/1/6 314/1/6 318/1/6
f 318/1/6 314/1/6 319/1/6
f 319/1/6 314/1/6 320/1/6
f 315/1/6 316/1/6 321/1/6
f 321/1/6 316/1/6 322/1/6
f 317/2/6 318/2/6 323/2/6
f 317/2/6 323/2/6 324/2/6
f 324/2/6 323/2/6 325/2/6
f 326/2/6 327/2/6 330/2/6
f 330/2/6 327/2/6 331/2/6
f 328/1/6 329/1/6 332/1/6
f 332/1/6 329/1/6 333/1/6
f 336/1/6 337/1/6 338/1/6
f 338/1/6 337/1/6 339/1/6
f 334/2/6 335/2/6 340/2/6
f 340/2/6 335/2/6 341/2/6
f 342/1/6 343/1/6 346/1/6
f 344/1/6 345/1/6 348/1/6
f 348/1/6 345/1/6 349/1/6
f 346/1/6 347/1/6 350/1/6
f 342/1/6 346/1/6 350/1/6
f 350/1/6 347/1/6 351/1/6
f 352/1/6 353/1/6 354/1/6
f 354/1/6 353/1/6 355/1/6
f 356/1/6 357/1/6 359/1/6
f 359/1/6 357/1/6 360/1/6
f 358/1/6 359/1/6 362/1/6
f 362/1/6 359/1/6 363/1/6
f 361/2/6 362/2/6 364/2/6
f 364/2/6 362/2/6 365/2/6
f 365/1/6 366/1/6 368/1/6
f 366/1/6 367/1/6 368/1/6
f 368/1/6 367/1/6 369/1/6
f 369/1/6 370/1/6 371/1/6
f 371/1/6 370/1/6 372/1/6
f 373/1/6 374/1/6 375/1/6
f 375/1/6 374/1/6 376/1/6
f 373/1/6 375/1/6 377/1/6
f 377/1/6 375/1/6 378/1/6
f 376/1/6 374/1/6 379/1/6
f 379/1/6 374/1/6 380/1/6
f 380/1/6 381/1/6 382/1/6
f 382/1/6 381/1/6 383/1/6
f 383/1/6 381/1/6 387/1/6
f 384/2/6 385/2/6 388/2/6
f 388/2/6 385/2/6 389/2/6
f 386/1/6 387/1/6 393/1/6
f 387/1/6 381/1/6 394/1/6
f 393/1/6 387/1/6 394/1/6
f 390/1/6 391/1/6 395/1/6
f 395/1/6 391/1/6 396/1/6
f 392/1/6 393/1/6 397/1/6
f 397/1/6 393/1/6 398/1/6
f 399/2/6 400/2/6 402/2/6
f 402/2/6 400/2/6 403/2/6
f 401/1/6 402/1/6 405/1/6
f 403/1/6 404/1/6 405/1/6
f 402/1/6 403/1/6 405/1/6
f 401/1/6 405/1/6 407/1/6
f 407/1/6 405/1/6 408/1/6
f 401/1/6 407/1/6 409/1/6
f 408/1/6 405/1/6 410/1/6
f 405/2/6 406/2/6 411/2/6
f 410/1/6 405/1/6 411/1/6
f 411/2/6 406/2/6 412/2/6
f 409/1/6 410/1/6 413/1/6
f 401/1/6 409/1/6 413/1/6
f 410/1/6 411/1/6 413/1/6
f 413/1/6 411/1/6 414/1/6
f 414/1/6 411/1/6 415/1/6
f 415/1/6 411/1/6 416/1/6
f 414/2/6 415/2/6 417/2/6
f 417/2/6 415/2/6 418/2/6
f 419/2/6 420/2/6 421/2/6
f 421/2/6 420/2/6 422/2/6
