# MagicaVoxel @ Ephtracy

# group
o 

# material
mtllib Campfire_2.mtl
usemtl palette

# normals
vn -1 0 0
vn 1 0 0
vn 0 0 1
vn 0 0 -1
vn 0 -1 0
vn 0 1 0

# texcoords
vt 0.560547 0.5
vt 0.982422 0.5
vt 0.986328 0.5
vt 0.994141 0.5

# verts
v -0.9 0 0.2
v -0.9 0 0.1
v -0.9 0.1 0.2
v -0.9 0.1 0.1
v -0.8 0 0.1
v -0.8 0 -0.2
v -0.8 0.1 0.2
v -0.8 0.1 0.1
v -0.8 0.1 -0.2
v -0.8 0.2 0.2
v -0.8 0.2 0.1
v -0.7 0 0.4
v -0.7 0 0.3
v -0.7 0 0.2
v -0.7 0 -0.2
v -0.7 0 -0.3
v -0.7 0.1 0.4
v -0.7 0.1 0.3
v -0.7 0.1 0.2
v -0.7 0.1 0.1
v -0.7 0.1 0
v -0.7 0.1 -0.2
v -0.7 0.1 -0.3
v -0.7 0.2 0.1
v -0.7 0.2 0
v -0.6 0.1 0
v -0.6 0.1 -0.2
v -0.6 0.1 -0.3
v -0.6 0.2 0
v -0.6 0.2 -0.1
v -0.6 0.2 -0.2
v -0.6 0.2 -0.3
v -0.6 0.3 0
v -0.6 0.3 -0.1
v -0.5 0.1 0.2
v -0.5 0.1 0.1
v -0.5 0.2 0.2
v -0.5 0.2 0.1
v -0.5 0.2 0
v -0.5 0.3 0.1
v -0.5 0.3 0
v -0.4 0 0.4
v -0.4 0 0.3
v -0.4 0 -0.3
v -0.4 0 -0.4
v -0.4 0.1 0.4
v -0.4 0.1 0.3
v -0.4 0.1 0.2
v -0.4 0.1 -0.3
v -0.4 0.1 -0.4
v -0.4 0.2 0.3
v -0.4 0.2 0.2
v -0.7 0.1 0.2
v -0.7 0.1 0.1
v -0.7 0.2 0.2
v -0.7 0.2 0.1
v -0.6 0 0.4
v -0.6 0 0.3
v -0.6 0.1 0.4
v -0.6 0.1 0.3
v -0.5 0.1 -0.2
v -0.5 0.1 -0.3
v -0.5 0.2 0
v -0.5 0.2 -0.1
v -0.5 0.2 -0.2
v -0.5 0.2 -0.3
v -0.5 0.3 0
v -0.5 0.3 -0.1
v -0.4 0.1 0.2
v -0.4 0.1 0.1
v -0.4 0.1 0
v -0.4 0.1 -0.2
v -0.4 0.2 0.2
v -0.4 0.2 0.1
v -0.4 0.2 0
v -0.4 0.2 -0.2
v -0.4 0.3 0.1
v -0.4 0.3 0
v -0.3 0 0.4
v -0.3 0 0.3
v -0.3 0 -0.2
v -0.3 0 -0.3
v -0.3 0 -0.4
v -0.3 0.1 0.4
v -0.3 0.1 0.3
v -0.3 0.1 0.2
v -0.3 0.1 0.1
v -0.3 0.1 0
v -0.3 0.1 -0.2
v -0.3 0.1 -0.3
v -0.3 0.1 -0.4
v -0.3 0.2 0.3
v -0.3 0.2 0.2
v -0.3 0.2 0.1
v -0.3 0.2 0
v -0.2 0 0.3
v -0.2 0 0.2
v -0.2 0 0.1
v -0.2 0 -0.1
v -0.2 0 -0.2
v -0.2 0.1 0.3
v -0.2 0.1 0.2
v -0.2 0.1 0.1
v -0.2 0.1 -0.1
v -0.2 0.1 -0.2
v -0.1 0 0.1
v -0.1 0 -0.1
v -0.1 0.1 0.1
v -0.1 0.1 -0.1
v -0.7 0 0.4
v -0.7 0.1 0.4
v -0.6 0 0.4
v -0.6 0.1 0.4
v -0.4 0 0.4
v -0.4 0.1 0.4
v -0.3 0 0.4
v -0.3 0.1 0.4
v -0.6 0 0.3
v -0.6 0.1 0.3
v -0.4 0 0.3
v -0.4 0.1 0.3
v -0.4 0.2 0.3
v -0.3 0 0.3
v -0.3 0.1 0.3
v -0.3 0.2 0.3
v -0.2 0 0.3
v -0.2 0.1 0.3
v -0.9 0 0.2
v -0.9 0.1 0.2
v -0.8 0 0.2
v -0.8 0.1 0.2
v -0.8 0.2 0.2
v -0.7 0 0.2
v -0.7 0.1 0.2
v -0.7 0.2 0.2
v -0.5 0.1 0.2
v -0.5 0.2 0.2
v -0.4 0.1 0.2
v -0.4 0.2 0.2
v -0.7 0.1 0.1
v -0.7 0.2 0.1
v -0.5 0.1 0.1
v -0.5 0.2 0.1
v -0.5 0.3 0.1
v -0.4 0.1 0.1
v -0.4 0.2 0.1
v -0.4 0.3 0.1
v -0.3 0.1 0.1
v -0.3 0.2 0.1
v -0.2 0 0.1
v -0.2 0.1 0.1
v -0.1 0 0.1
v -0.1 0.1 0.1
v -0.6 0.2 0
v -0.6 0.3 0
v -0.5 0.2 0
v -0.5 0.3 0
v -0.4 0.1 0.2
v -0.4 0.2 0.2
v -0.3 0.1 0.2
v -0.3 0.2 0.2
v -0.9 0 0.1
v -0.9 0.1 0.1
v -0.8 0 0.1
v -0.8 0.1 0.1
v -0.8 0.2 0.1
v -0.7 0.1 0.1
v -0.7 0.2 0.1
v -0.7 0.1 0
v -0.7 0.2 0
v -0.6 0.1 0
v -0.6 0.2 0
v -0.5 0.2 0
v -0.5 0.3 0
v -0.4 0.1 0
v -0.4 0.2 0
v -0.4 0.3 0
v -0.3 0.1 0
v -0.3 0.2 0
v -0.6 0.2 -0.1
v -0.6 0.3 -0.1
v -0.5 0.2 -0.1
v -0.5 0.3 -0.1
v -0.2 0 -0.1
v -0.2 0.1 -0.1
v -0.1 0 -0.1
v -0.1 0.1 -0.1
v -0.8 0 -0.2
v -0.8 0.1 -0.2
v -0.7 0 -0.2
v -0.7 0.1 -0.2
v -0.5 0.1 -0.2
v -0.5 0.2 -0.2
v -0.4 0.1 -0.2
v -0.4 0.2 -0.2
v -0.3 0 -0.2
v -0.3 0.1 -0.2
v -0.2 0 -0.2
v -0.2 0.1 -0.2
v -0.7 0 -0.3
v -0.7 0.1 -0.3
v -0.6 0.1 -0.3
v -0.6 0.2 -0.3
v -0.5 0.1 -0.3
v -0.5 0.2 -0.3
v -0.4 0 -0.3
v -0.4 0.1 -0.3
v -0.4 0 -0.4
v -0.4 0.1 -0.4
v -0.3 0 -0.4
v -0.3 0.1 -0.4
v -0.7 0 0.4
v -0.6 0 0.4
v -0.4 0 0.4
v -0.3 0 0.4
v -0.7 0 0.3
v -0.6 0 0.3
v -0.4 0 0.3
v -0.3 0 0.3
v -0.2 0 0.3
v -0.9 0 0.2
v -0.8 0 0.2
v -0.7 0 0.2
v -0.5 0 0.2
v -0.4 0 0.2
v -0.3 0 0.2
v -0.2 0 0.2
v -0.9 0 0.1
v -0.8 0 0.1
v -0.7 0 0.1
v -0.5 0 0.1
v -0.4 0 0.1
v -0.3 0 0.1
v -0.2 0 0.1
v -0.1 0 0.1
v -0.7 0 0
v -0.6 0 0
v -0.4 0 0
v -0.3 0 0
v -0.2 0 -0.1
v -0.1 0 -0.1
v -0.8 0 -0.2
v -0.7 0 -0.2
v -0.6 0 -0.2
v -0.4 0 -0.2
v -0.3 0 -0.2
v -0.2 0 -0.2
v -0.7 0 -0.3
v -0.4 0 -0.3
v -0.3 0 -0.3
v -0.4 0 -0.4
v -0.3 0 -0.4
v -0.7 0.1 0.4
v -0.6 0.1 0.4
v -0.4 0.1 0.4
v -0.3 0.1 0.4
v -0.7 0.1 0.3
v -0.6 0.1 0.3
v -0.4 0.1 0.3
v -0.3 0.1 0.3
v -0.2 0.1 0.3
v -0.9 0.1 0.2
v -0.8 0.1 0.2
v -0.7 0.1 0.2
v -0.5 0.1 0.2
v -0.4 0.1 0.2
v -0.3 0.1 0.2
v -0.2 0.1 0.2
v -0.9 0.1 0.1
v -0.8 0.1 0.1
v -0.7 0.1 0.1
v -0.5 0.1 0.1
v -0.4 0.1 0.1
v -0.3 0.1 0.1
v -0.2 0.1 0.1
v -0.1 0.1 0.1
v -0.7 0.1 0
v -0.6 0.1 0
v -0.4 0.1 0
v -0.3 0.1 0
v -0.2 0.1 -0.1
v -0.1 0.1 -0.1
v -0.8 0.1 -0.2
v -0.7 0.1 -0.2
v -0.6 0.1 -0.2
v -0.5 0.1 -0.2
v -0.4 0.1 -0.2
v -0.3 0.1 -0.2
v -0.2 0.1 -0.2
v -0.7 0.1 -0.3
v -0.6 0.1 -0.3
v -0.5 0.1 -0.3
v -0.4 0.1 -0.3
v -0.3 0.1 -0.3
v -0.4 0.1 -0.4
v -0.3 0.1 -0.4
v -0.4 0.2 0.3
v -0.3 0.2 0.3
v -0.8 0.2 0.2
v -0.7 0.2 0.2
v -0.5 0.2 0.2
v -0.4 0.2 0.2
v -0.3 0.2 0.2
v -0.8 0.2 0.1
v -0.7 0.2 0.1
v -0.5 0.2 0.1
v -0.4 0.2 0.1
v -0.3 0.2 0.1
v -0.7 0.2 0
v -0.6 0.2 0
v -0.5 0.2 0
v -0.4 0.2 0
v -0.3 0.2 0
v -0.6 0.2 -0.1
v -0.5 0.2 -0.1
v -0.6 0.2 -0.2
v -0.5 0.2 -0.2
v -0.4 0.2 -0.2
v -0.6 0.2 -0.3
v -0.5 0.2 -0.3
v -0.5 0.3 0.1
v -0.4 0.3 0.1
v -0.6 0.3 0
v -0.5 0.3 0
v -0.4 0.3 0
v -0.6 0.3 -0.1
v -0.5 0.3 -0.1

# faces
f 3/2/1 2/2/1 1/2/1
f 4/2/1 2/2/1 3/2/1
f 8/3/1 6/3/1 5/3/1
f 9/3/1 6/3/1 8/3/1
f 10/2/1 8/2/1 7/2/1
f 11/2/1 8/2/1 10/2/1
f 17/2/1 13/2/1 12/2/1
f 18/3/1 14/3/1 13/3/1
f 18/2/1 13/2/1 17/2/1
f 19/3/1 14/3/1 18/3/1
f 22/3/1 16/3/1 15/3/1
f 23/3/1 16/3/1 22/3/1
f 24/4/1 21/4/1 20/4/1
f 25/4/1 21/4/1 24/4/1
f 29/4/1 27/4/1 26/4/1
f 30/4/1 27/4/1 29/4/1
f 31/2/1 28/2/1 27/2/1
f 31/4/1 27/4/1 30/4/1
f 32/2/1 28/2/1 31/2/1
f 33/4/1 30/4/1 29/4/1
f 34/4/1 30/4/1 33/4/1
f 37/4/1 36/4/1 35/4/1
f 38/4/1 36/4/1 37/4/1
f 40/4/1 39/4/1 38/4/1
f 41/4/1 39/4/1 40/4/1
f 46/2/1 43/2/1 42/2/1
f 47/2/1 43/2/1 46/2/1
f 49/2/1 45/2/1 44/2/1
f 50/2/1 45/2/1 49/2/1
f 51/2/1 48/2/1 47/2/1
f 52/2/1 48/2/1 51/2/1
f 53/2/2 54/2/2 55/2/2
f 55/2/2 54/2/2 56/2/2
f 57/2/2 58/2/2 59/2/2
f 59/2/2 58/2/2 60/2/2
f 61/2/2 62/2/2 65/2/2
f 65/2/2 62/2/2 66/2/2
f 63/4/2 64/4/2 67/4/2
f 67/4/2 64/4/2 68/4/2
f 69/4/2 70/4/2 73/4/2
f 73/4/2 70/4/2 74/4/2
f 71/4/2 72/4/2 75/4/2
f 75/4/2 72/4/2 76/4/2
f 74/4/2 75/4/2 77/4/2
f 77/4/2 75/4/2 78/4/2
f 79/2/2 80/2/2 84/2/2
f 84/2/2 80/2/2 85/2/2
f 81/3/2 82/3/2 89/3/2
f 82/2/2 83/2/2 90/2/2
f 89/3/2 82/3/2 90/3/2
f 90/2/2 83/2/2 91/2/2
f 85/2/2 86/2/2 92/2/2
f 92/2/2 86/2/2 93/2/2
f 87/4/2 88/4/2 94/4/2
f 94/4/2 88/4/2 95/4/2
f 96/2/2 97/2/2 101/2/2
f 97/3/2 98/3/2 102/3/2
f 101/2/2 97/2/2 102/2/2
f 102/3/2 98/3/2 103/3/2
f 99/3/2 100/3/2 104/3/2
f 104/3/2 100/3/2 105/3/2
f 106/2/2 107/2/2 108/2/2
f 108/2/2 107/2/2 109/2/2
f 112/2/3 111/2/3 110/2/3
f 113/2/3 111/2/3 112/2/3
f 116/2/3 115/2/3 114/2/3
f 117/2/3 115/2/3 116/2/3
f 120/3/3 119/3/3 118/3/3
f 121/3/3 119/3/3 120/3/3
f 124/2/3 122/2/3 121/2/3
f 125/2/3 122/2/3 124/2/3
f 126/2/3 124/2/3 123/2/3
f 127/2/3 124/2/3 126/2/3
f 130/2/3 129/2/3 128/2/3
f 131/2/3 129/2/3 130/2/3
f 133/3/3 131/3/3 130/3/3
f 134/2/3 132/2/3 131/2/3
f 134/3/3 131/3/3 133/3/3
f 135/2/3 132/2/3 134/2/3
f 138/4/3 137/4/3 136/4/3
f 139/4/3 137/4/3 138/4/3
f 142/4/3 141/4/3 140/4/3
f 143/4/3 141/4/3 142/4/3
f 146/4/3 144/4/3 143/4/3
f 147/4/3 144/4/3 146/4/3
f 148/4/3 146/4/3 145/4/3
f 149/4/3 146/4/3 148/4/3
f 152/2/3 151/2/3 150/2/3
f 153/2/3 151/2/3 152/2/3
f 156/4/3 155/4/3 154/4/3
f 157/4/3 155/4/3 156/4/3
f 158/2/4 159/2/4 160/2/4
f 160/2/4 159/2/4 161/2/4
f 162/2/4 163/2/4 164/2/4
f 164/2/4 163/2/4 165/2/4
f 165/2/4 166/2/4 167/2/4
f 167/2/4 166/2/4 168/2/4
f 169/4/4 170/4/4 171/4/4
f 171/4/4 170/4/4 172/4/4
f 173/4/4 174/4/4 176/4/4
f 176/4/4 174/4/4 177/4/4
f 175/4/4 176/4/4 178/4/4
f 178/4/4 176/4/4 179/4/4
f 180/4/4 181/4/4 182/4/4
f 182/4/4 181/4/4 183/4/4
f 184/2/4 185/2/4 186/2/4
f 186/2/4 185/2/4 187/2/4
f 188/3/4 189/3/4 190/3/4
f 190/3/4 189/3/4 191/3/4
f 192/4/4 193/4/4 194/4/4
f 194/4/4 193/4/4 195/4/4
f 196/3/4 197/3/4 198/3/4
f 198/3/4 197/3/4 199/3/4
f 200/3/4 201/3/4 202/3/4
f 200/3/4 202/3/4 204/3/4
f 202/2/4 203/2/4 204/2/4
f 204/2/4 203/2/4 205/2/4
f 200/3/4 204/3/4 206/3/4
f 206/3/4 204/3/4 207/3/4
f 208/2/4 209/2/4 210/2/4
f 210/2/4 209/2/4 211/2/4
f 216/2/5 213/2/5 212/2/5
f 217/2/5 213/2/5 216/2/5
f 218/2/5 215/2/5 214/2/5
f 219/2/5 215/2/5 218/2/5
f 223/3/5 217/3/5 216/3/5
f 223/3/5 218/3/5 217/3/5
f 223/3/5 219/3/5 218/3/5
f 224/3/5 219/3/5 223/3/5
f 225/3/5 219/3/5 224/3/5
f 226/2/5 220/2/5 219/2/5
f 226/3/5 219/3/5 225/3/5
f 227/2/5 220/2/5 226/2/5
f 228/2/5 222/2/5 221/2/5
f 229/3/5 223/3/5 222/3/5
f 229/2/5 222/2/5 228/2/5
f 230/1/5 224/1/5 223/1/5
f 230/3/5 223/3/5 229/3/5
f 231/4/5 225/4/5 224/4/5
f 231/1/5 224/1/5 230/1/5
f 232/1/5 226/1/5 225/1/5
f 232/4/5 225/4/5 231/4/5
f 233/3/5 227/3/5 226/3/5
f 233/1/5 226/1/5 232/1/5
f 234/3/5 227/3/5 233/3/5
f 236/3/5 230/3/5 229/3/5
f 236/4/5 233/4/5 232/4/5
f 236/4/5 232/4/5 231/4/5
f 236/4/5 231/4/5 230/4/5
f 237/4/5 233/4/5 236/4/5
f 238/4/5 233/4/5 237/4/5
f 239/3/5 234/3/5 233/3/5
f 239/4/5 233/4/5 238/4/5
f 240/2/5 235/2/5 234/2/5
f 240/3/5 234/3/5 239/3/5
f 241/2/5 235/2/5 240/2/5
f 242/3/5 236/3/5 229/3/5
f 243/1/5 237/1/5 236/1/5
f 243/3/5 236/3/5 242/3/5
f 244/4/5 238/4/5 237/4/5
f 244/1/5 237/1/5 243/1/5
f 245/1/5 239/1/5 238/1/5
f 245/4/5 238/4/5 244/4/5
f 246/3/5 240/3/5 239/3/5
f 246/1/5 239/1/5 245/1/5
f 247/3/5 240/3/5 246/3/5
f 248/3/5 244/3/5 243/3/5
f 248/3/5 246/3/5 245/3/5
f 248/3/5 245/3/5 244/3/5
f 249/3/5 246/3/5 248/3/5
f 250/3/5 246/3/5 249/3/5
f 251/2/5 250/2/5 249/2/5
f 252/2/5 250/2/5 251/2/5
f 253/2/6 254/2/6 257/2/6
f 257/2/6 254/2/6 258/2/6
f 255/2/6 256/2/6 259/2/6
f 259/2/6 256/2/6 260/2/6
f 257/3/6 258/3/6 264/3/6
f 258/3/6 259/3/6 264/3/6
f 264/3/6 259/3/6 265/3/6
f 265/3/6 259/3/6 266/3/6
f 260/2/6 261/2/6 267/2/6
f 267/2/6 261/2/6 268/2/6
f 262/2/6 263/2/6 269/2/6
f 269/2/6 263/2/6 270/2/6
f 264/1/6 265/1/6 271/1/6
f 271/1/6 265/1/6 272/1/6
f 266/1/6 267/1/6 273/1/6
f 267/3/6 268/3/6 274/3/6
f 273/1/6 267/1/6 274/1/6
f 274/3/6 268/3/6 275/3/6
f 270/3/6 271/3/6 277/3/6
f 274/3/6 275/3/6 280/3/6
f 275/2/6 276/2/6 281/2/6
f 280/3/6 275/3/6 281/3/6
f 281/2/6 276/2/6 282/2/6
f 270/3/6 277/3/6 283/3/6
f 277/1/6 278/1/6 284/1/6
f 283/3/6 277/3/6 284/3/6
f 284/1/6 278/1/6 285/1/6
f 279/1/6 280/1/6 287/1/6
f 280/3/6 281/3/6 288/3/6
f 287/1/6 280/1/6 288/1/6
f 288/3/6 281/3/6 289/3/6
f 284/3/6 285/3/6 290/3/6
f 290/3/6 285/3/6 291/3/6
f 286/3/6 287/3/6 292/3/6
f 287/3/6 288/3/6 292/3/6
f 292/3/6 288/3/6 293/3/6
f 293/3/6 288/3/6 294/3/6
f 293/2/6 294/2/6 295/2/6
f 295/2/6 294/2/6 296/2/6
f 297/2/6 298/2/6 302/2/6
f 302/2/6 298/2/6 303/2/6
f 299/2/6 300/2/6 304/2/6
f 304/2/6 300/2/6 305/2/6
f 301/4/6 302/4/6 306/4/6
f 306/4/6 302/4/6 307/4/6
f 305/4/6 306/4/6 309/4/6
f 309/4/6 306/4/6 310/4/6
f 310/4/6 306/4/6 311/4/6
f 307/4/6 308/4/6 312/4/6
f 312/4/6 308/4/6 313/4/6
f 311/4/6 312/4/6 315/4/6
f 314/4/6 315/4/6 316/4/6
f 315/4/6 312/4/6 317/4/6
f 316/4/6 315/4/6 317/4/6
f 317/4/6 312/4/6 318/4/6
f 316/2/6 317/2/6 319/2/6
f 319/2/6 317/2/6 320/2/6
f 321/4/6 322/4/6 324/4/6
f 324/4/6 322/4/6 325/4/6
f 323/4/6 324/4/6 326/4/6
f 326/4/6 324/4/6 327/4/6
