# MagicaVoxel @ Ephtracy

# group
o 

# material
mtllib Mine Cart.mtl
usemtl palette

# normals
vn -1 0 0
vn 1 0 0
vn 0 0 1
vn 0 0 -1
vn 0 -1 0
vn 0 1 0

# texcoords
vt 0.974609 0.5
vt 0.982422 0.5
vt 0.986328 0.5
vt 0.990234 0.5
vt 0.994141 0.5

# verts
v -0.6 0 0.6
v -0.6 0 0.5
v -0.6 0 0.4
v -0.6 0 0.3
v -0.6 0 0.1
v -0.6 0 0
v -0.6 0 -0.1
v -0.6 0 -0.2
v -0.6 0.1 0.6
v -0.6 0.1 0.5
v -0.6 0.1 0.4
v -0.6 0.1 0.3
v -0.6 0.1 0.1
v -0.6 0.1 0
v -0.6 0.1 -0.1
v -0.6 0.1 -0.2
v -0.6 0.2 0.6
v -0.6 0.2 0.5
v -0.6 0.2 0.4
v -0.6 0.2 0.3
v -0.6 0.2 0.1
v -0.6 0.2 0
v -0.6 0.2 -0.1
v -0.6 0.2 -0.2
v -0.6 0.3 0.6
v -0.6 0.3 0.5
v -0.6 0.3 0.4
v -0.6 0.3 0.3
v -0.6 0.3 0.1
v -0.6 0.3 0
v -0.6 0.3 -0.1
v -0.6 0.3 -0.2
v -0.5 0.1 0.7
v -0.5 0.1 0.6
v -0.5 0.1 0.3
v -0.5 0.1 0.1
v -0.5 0.1 -0.2
v -0.5 0.1 -0.3
v -0.5 0.2 0.6
v -0.5 0.2 0.3
v -0.5 0.2 0.1
v -0.5 0.2 -0.2
v -0.5 0.3 0.6
v -0.5 0.3 0.5
v -0.5 0.3 0.4
v -0.5 0.3 0.3
v -0.5 0.3 0.1
v -0.5 0.3 0
v -0.5 0.3 -0.1
v -0.5 0.3 -0.2
v -0.5 0.6 0.7
v -0.5 0.6 -0.3
v -0.4 0.4 0.8
v -0.4 0.4 0.7
v -0.4 0.5 0.8
v -0.4 0.5 0.7
v -0.4 0.6 0.6
v -0.4 0.6 0.4
v -0.4 0.7 0.6
v -0.4 0.7 0.4
v -0.2 0.5 0.1
v -0.2 0.5 -0.2
v -0.2 0.6 0.3
v -0.2 0.6 0.1
v -0.2 0.6 0
v -0.2 0.6 -0.2
v -0.2 0.7 0.3
v -0.2 0.7 0
v -0.1 0.2 0.6
v -0.1 0.2 0.5
v -0.1 0.3 0.6
v -0.1 0.3 0.5
v -0.1 0.6 0
v -0.1 0.6 -0.1
v -0.1 0.7 0
v -0.1 0.7 -0.1
v 0.1 0.5 0.6
v 0.1 0.5 0.3
v 0.1 0.6 0.6
v 0.1 0.6 0.3
v 0.2 0 0.6
v 0.2 0 0.5
v 0.2 0 0.4
v 0.2 0 0.3
v 0.2 0 0.1
v 0.2 0 0
v 0.2 0 -0.1
v 0.2 0 -0.2
v 0.2 0.1 0.6
v 0.2 0.1 0.5
v 0.2 0.1 0.4
v 0.2 0.1 0.3
v 0.2 0.1 0.1
v 0.2 0.1 0
v 0.2 0.1 -0.1
v 0.2 0.1 -0.2
v -0.5 0 0.6
v -0.5 0 0.5
v -0.5 0 0.4
v -0.5 0 0.3
v -0.5 0 0.1
v -0.5 0 0
v -0.5 0 -0.1
v -0.5 0 -0.2
v -0.5 0.1 0.6
v -0.5 0.1 0.5
v -0.5 0.1 0.4
v -0.5 0.1 0.3
v -0.5 0.1 0.1
v -0.5 0.1 0
v -0.5 0.1 -0.1
v -0.5 0.1 -0.2
v -0.4 0.2 0.6
v -0.4 0.2 0.5
v -0.4 0.3 0.6
v -0.4 0.3 0.5
v -0.4 0.5 0.1
v -0.4 0.5 -0.2
v -0.4 0.6 0.1
v -0.4 0.6 -0.2
v -0.2 0.6 0.6
v -0.2 0.6 0.4
v -0.2 0.7 0.6
v -0.2 0.7 0.4
v -0.1 0.5 0.6
v -0.1 0.5 0.3
v -0.1 0.6 0.6
v -0.1 0.6 0.3
v 0.1 0.4 0.8
v 0.1 0.4 0.7
v 0.1 0.5 0.8
v 0.1 0.5 0.7
v 0.1 0.6 0.3
v 0.1 0.6 -0.1
v 0.1 0.7 0.3
v 0.1 0.7 -0.1
v 0.2 0.1 0.7
v 0.2 0.1 0.6
v 0.2 0.1 0.3
v 0.2 0.1 0.1
v 0.2 0.1 -0.2
v 0.2 0.1 -0.3
v 0.2 0.2 0.6
v 0.2 0.2 0.3
v 0.2 0.2 0.1
v 0.2 0.2 -0.2
v 0.2 0.3 0.6
v 0.2 0.3 0.5
v 0.2 0.3 0.4
v 0.2 0.3 0.3
v 0.2 0.3 0.1
v 0.2 0.3 0
v 0.2 0.3 -0.1
v 0.2 0.3 -0.2
v 0.2 0.6 0.7
v 0.2 0.6 -0.3
v 0.3 0 0.6
v 0.3 0 0.5
v 0.3 0 0.4
v 0.3 0 0.3
v 0.3 0 0.1
v 0.3 0 0
v 0.3 0 -0.1
v 0.3 0 -0.2
v 0.3 0.1 0.6
v 0.3 0.1 0.5
v 0.3 0.1 0.4
v 0.3 0.1 0.3
v 0.3 0.1 0.1
v 0.3 0.1 0
v 0.3 0.1 -0.1
v 0.3 0.1 -0.2
v 0.3 0.2 0.6
v 0.3 0.2 0.5
v 0.3 0.2 0.4
v 0.3 0.2 0.3
v 0.3 0.2 0.1
v 0.3 0.2 0
v 0.3 0.2 -0.1
v 0.3 0.2 -0.2
v 0.3 0.3 0.6
v 0.3 0.3 0.5
v 0.3 0.3 0.4
v 0.3 0.3 0.3
v 0.3 0.3 0.1
v 0.3 0.3 0
v 0.3 0.3 -0.1
v 0.3 0.3 -0.2
v -0.4 0.4 0.8
v -0.4 0.5 0.8
v 0.1 0.4 0.8
v 0.1 0.5 0.8
v -0.5 0.1 0.7
v -0.5 0.6 0.7
v -0.4 0.4 0.7
v -0.4 0.5 0.7
v 0.1 0.4 0.7
v 0.1 0.5 0.7
v 0.2 0.1 0.7
v 0.2 0.6 0.7
v -0.6 0 0.6
v -0.6 0.1 0.6
v -0.6 0.2 0.6
v -0.6 0.3 0.6
v -0.5 0 0.6
v -0.5 0.1 0.6
v -0.5 0.2 0.6
v -0.5 0.3 0.6
v -0.4 0.6 0.6
v -0.4 0.7 0.6
v -0.2 0.6 0.6
v -0.2 0.7 0.6
v 0.2 0 0.6
v 0.2 0.1 0.6
v 0.2 0.2 0.6
v 0.2 0.3 0.6
v 0.3 0 0.6
v 0.3 0.1 0.6
v 0.3 0.2 0.6
v 0.3 0.3 0.6
v -0.4 0.2 0.5
v -0.4 0.3 0.5
v -0.1 0.2 0.5
v -0.1 0.3 0.5
v -0.2 0.6 0.3
v -0.2 0.7 0.3
v -0.1 0.5 0.3
v -0.1 0.6 0.3
v 0.1 0.5 0.3
v 0.1 0.6 0.3
v 0.1 0.7 0.3
v -0.6 0 0.1
v -0.6 0.1 0.1
v -0.6 0.2 0.1
v -0.6 0.3 0.1
v -0.5 0 0.1
v -0.5 0.1 0.1
v -0.5 0.2 0.1
v -0.5 0.3 0.1
v 0.2 0 0.1
v 0.2 0.1 0.1
v 0.2 0.2 0.1
v 0.2 0.3 0.1
v 0.3 0 0.1
v 0.3 0.1 0.1
v 0.3 0.2 0.1
v 0.3 0.3 0.1
v -0.4 0.5 -0.2
v -0.4 0.6 -0.2
v -0.2 0.5 -0.2
v -0.2 0.6 -0.2
v -0.4 0.2 0.6
v -0.4 0.3 0.6
v -0.1 0.2 0.6
v -0.1 0.3 0.6
v -0.1 0.5 0.6
v -0.1 0.6 0.6
v 0.1 0.5 0.6
v 0.1 0.6 0.6
v -0.4 0.6 0.4
v -0.4 0.7 0.4
v -0.2 0.6 0.4
v -0.2 0.7 0.4
v -0.6 0 0.3
v -0.6 0.1 0.3
v -0.6 0.2 0.3
v -0.6 0.3 0.3
v -0.5 0 0.3
v -0.5 0.1 0.3
v -0.5 0.2 0.3
v -0.5 0.3 0.3
v 0.2 0 0.3
v 0.2 0.1 0.3
v 0.2 0.2 0.3
v 0.2 0.3 0.3
v 0.3 0 0.3
v 0.3 0.1 0.3
v 0.3 0.2 0.3
v 0.3 0.3 0.3
v -0.4 0.5 0.1
v -0.4 0.6 0.1
v -0.2 0.5 0.1
v -0.2 0.6 0.1
v -0.2 0.6 0
v -0.2 0.7 0
v -0.1 0.6 0
v -0.1 0.7 0
v -0.1 0.6 -0.1
v -0.1 0.7 -0.1
v 0.1 0.6 -0.1
v 0.1 0.7 -0.1
v -0.6 0 -0.2
v -0.6 0.1 -0.2
v -0.6 0.2 -0.2
v -0.6 0.3 -0.2
v -0.5 0 -0.2
v -0.5 0.1 -0.2
v -0.5 0.2 -0.2
v -0.5 0.3 -0.2
v 0.2 0 -0.2
v 0.2 0.1 -0.2
v 0.2 0.2 -0.2
v 0.2 0.3 -0.2
v 0.3 0 -0.2
v 0.3 0.1 -0.2
v 0.3 0.2 -0.2
v 0.3 0.3 -0.2
v -0.5 0.1 -0.3
v -0.5 0.6 -0.3
v 0.2 0.1 -0.3
v 0.2 0.6 -0.3
v -0.6 0 0.6
v -0.5 0 0.6
v 0.2 0 0.6
v 0.3 0 0.6
v -0.6 0 0.5
v -0.5 0 0.5
v 0.2 0 0.5
v 0.3 0 0.5
v -0.6 0 0.4
v -0.5 0 0.4
v 0.2 0 0.4
v 0.3 0 0.4
v -0.6 0 0.3
v -0.5 0 0.3
v 0.2 0 0.3
v 0.3 0 0.3
v -0.6 0 0.1
v -0.5 0 0.1
v 0.2 0 0.1
v 0.3 0 0.1
v -0.6 0 0
v -0.5 0 0
v 0.2 0 0
v 0.3 0 0
v -0.6 0 -0.1
v -0.5 0 -0.1
v 0.2 0 -0.1
v 0.3 0 -0.1
v -0.6 0 -0.2
v -0.5 0 -0.2
v 0.2 0 -0.2
v 0.3 0 -0.2
v -0.5 0.1 0.7
v 0.2 0.1 0.7
v -0.5 0.1 0.6
v 0.2 0.1 0.6
v -0.5 0.1 0.5
v 0.2 0.1 0.5
v -0.5 0.1 0.4
v 0.2 0.1 0.4
v -0.5 0.1 0.3
v 0.2 0.1 0.3
v -0.5 0.1 0.1
v 0.2 0.1 0.1
v -0.5 0.1 0
v 0.2 0.1 0
v -0.5 0.1 -0.1
v 0.2 0.1 -0.1
v -0.5 0.1 -0.2
v 0.2 0.1 -0.2
v -0.5 0.1 -0.3
v 0.2 0.1 -0.3
v -0.4 0.3 0.6
v -0.1 0.3 0.6
v -0.4 0.3 0.5
v -0.1 0.3 0.5
v -0.4 0.4 0.8
v 0.1 0.4 0.8
v -0.4 0.4 0.7
v 0.1 0.4 0.7
v -0.4 0.2 0.6
v -0.1 0.2 0.6
v -0.4 0.2 0.5
v -0.1 0.2 0.5
v -0.6 0.3 0.6
v -0.5 0.3 0.6
v 0.2 0.3 0.6
v 0.3 0.3 0.6
v -0.6 0.3 0.5
v -0.5 0.3 0.5
v 0.2 0.3 0.5
v 0.3 0.3 0.5
v -0.6 0.3 0.4
v -0.5 0.3 0.4
v 0.2 0.3 0.4
v 0.3 0.3 0.4
v -0.6 0.3 0.3
v -0.5 0.3 0.3
v 0.2 0.3 0.3
v 0.3 0.3 0.3
v -0.6 0.3 0.1
v -0.5 0.3 0.1
v 0.2 0.3 0.1
v 0.3 0.3 0.1
v -0.6 0.3 0
v -0.5 0.3 0
v 0.2 0.3 0
v 0.3 0.3 0
v -0.6 0.3 -0.1
v -0.5 0.3 -0.1
v 0.2 0.3 -0.1
v 0.3 0.3 -0.1
v -0.6 0.3 -0.2
v -0.5 0.3 -0.2
v 0.2 0.3 -0.2
v 0.3 0.3 -0.2
v -0.4 0.5 0.8
v 0.1 0.5 0.8
v -0.4 0.5 0.7
v 0.1 0.5 0.7
v -0.1 0.5 0.6
v 0.1 0.5 0.6
v -0.1 0.5 0.3
v 0.1 0.5 0.3
v -0.4 0.5 0.1
v -0.2 0.5 0.1
v -0.4 0.5 -0.2
v -0.2 0.5 -0.2
v -0.5 0.6 0.7
v 0.2 0.6 0.7
v -0.4 0.6 0.6
v -0.2 0.6 0.6
v -0.1 0.6 0.6
v 0.1 0.6 0.6
v -0.4 0.6 0.4
v -0.2 0.6 0.4
v -0.2 0.6 0.3
v -0.1 0.6 0.3
v 0.1 0.6 0.3
v -0.4 0.6 0.1
v -0.2 0.6 0.1
v -0.2 0.6 0
v -0.1 0.6 0
v -0.1 0.6 -0.1
v 0.1 0.6 -0.1
v -0.4 0.6 -0.2
v -0.2 0.6 -0.2
v 0.1 0.6 -0.2
v -0.5 0.6 -0.3
v 0.2 0.6 -0.3
v -0.4 0.7 0.6
v -0.2 0.7 0.6
v -0.4 0.7 0.4
v -0.2 0.7 0.4
v -0.2 0.7 0.3
v 0.1 0.7 0.3
v -0.2 0.7 0
v -0.1 0.7 0
v -0.1 0.7 -0.1
v 0.1 0.7 -0.1

# faces
f 9/2/1 2/2/1 1/2/1
f 10/1/1 3/1/1 2/1/1
f 10/2/1 2/2/1 9/2/1
f 11/2/1 4/2/1 3/2/1
f 11/1/1 3/1/1 10/1/1
f 12/2/1 4/2/1 11/2/1
f 13/2/1 6/2/1 5/2/1
f 14/1/1 7/1/1 6/1/1
f 14/2/1 6/2/1 13/2/1
f 15/2/1 8/2/1 7/2/1
f 15/1/1 7/1/1 14/1/1
f 16/2/1 8/2/1 15/2/1
f 17/1/1 10/1/1 9/1/1
f 17/1/1 12/1/1 11/1/1
f 17/1/1 11/1/1 10/1/1
f 18/1/1 12/1/1 17/1/1
f 19/1/1 12/1/1 18/1/1
f 20/1/1 12/1/1 19/1/1
f 21/1/1 14/1/1 13/1/1
f 21/1/1 16/1/1 15/1/1
f 21/1/1 15/1/1 14/1/1
f 22/1/1 16/1/1 21/1/1
f 23/1/1 16/1/1 22/1/1
f 24/1/1 16/1/1 23/1/1
f 25/2/1 18/2/1 17/2/1
f 26/1/1 19/1/1 18/1/1
f 26/2/1 18/2/1 25/2/1
f 27/2/1 20/2/1 19/2/1
f 27/1/1 19/1/1 26/1/1
f 28/2/1 20/2/1 27/2/1
f 29/2/1 22/2/1 21/2/1
f 30/1/1 23/1/1 22/1/1
f 30/2/1 22/2/1 29/2/1
f 31/2/1 24/2/1 23/2/1
f 31/1/1 23/1/1 30/1/1
f 32/2/1 24/2/1 31/2/1
f 39/3/1 34/3/1 33/3/1
f 40/3/1 36/3/1 35/3/1
f 41/3/1 36/3/1 40/3/1
f 42/3/1 38/3/1 37/3/1
f 43/3/1 39/3/1 33/3/1
f 46/3/1 41/3/1 40/3/1
f 47/3/1 41/3/1 46/3/1
f 50/3/1 38/3/1 42/3/1
f 51/3/1 45/3/1 44/3/1
f 51/3/1 50/3/1 49/3/1
f 51/3/1 49/3/1 48/3/1
f 51/3/1 43/3/1 33/3/1
f 51/3/1 48/3/1 47/3/1
f 51/3/1 47/3/1 46/3/1
f 51/3/1 46/3/1 45/3/1
f 51/3/1 44/3/1 43/3/1
f 52/3/1 38/3/1 50/3/1
f 52/3/1 50/3/1 51/3/1
f 55/4/1 54/4/1 53/4/1
f 56/4/1 54/4/1 55/4/1
f 59/5/1 58/5/1 57/5/1
f 60/5/1 58/5/1 59/5/1
f 64/5/1 62/5/1 61/5/1
f 65/5/1 62/5/1 64/5/1
f 66/5/1 62/5/1 65/5/1
f 67/5/1 64/5/1 63/5/1
f 67/5/1 65/5/1 64/5/1
f 68/5/1 65/5/1 67/5/1
f 71/5/1 70/5/1 69/5/1
f 72/5/1 70/5/1 71/5/1
f 75/5/1 74/5/1 73/5/1
f 76/5/1 74/5/1 75/5/1
f 79/3/1 78/3/1 77/3/1
f 80/3/1 78/3/1 79/3/1
f 89/2/1 82/2/1 81/2/1
f 90/1/1 83/1/1 82/1/1
f 90/2/1 82/2/1 89/2/1
f 91/2/1 84/2/1 83/2/1
f 91/1/1 83/1/1 90/1/1
f 92/2/1 84/2/1 91/2/1
f 93/2/1 86/2/1 85/2/1
f 94/1/1 87/1/1 86/1/1
f 94/2/1 86/2/1 93/2/1
f 95/2/1 88/2/1 87/2/1
f 95/1/1 87/1/1 94/1/1
f 96/2/1 88/2/1 95/2/1
f 97/2/2 98/2/2 105/2/2
f 98/1/2 99/1/2 106/1/2
f 105/2/2 98/2/2 106/2/2
f 99/2/2 100/2/2 107/2/2
f 106/1/2 99/1/2 107/1/2
f 107/2/2 100/2/2 108/2/2
f 101/2/2 102/2/2 109/2/2
f 102/1/2 103/1/2 110/1/2
f 109/2/2 102/2/2 110/2/2
f 103/2/2 104/2/2 111/2/2
f 110/1/2 103/1/2 111/1/2
f 111/2/2 104/2/2 112/2/2
f 113/3/2 114/3/2 115/3/2
f 115/3/2 114/3/2 116/3/2
f 117/3/2 118/3/2 119/3/2
f 119/3/2 118/3/2 120/3/2
f 121/5/2 122/5/2 123/5/2
f 123/5/2 122/5/2 124/5/2
f 125/5/2 126/5/2 127/5/2
f 127/5/2 126/5/2 128/5/2
f 129/4/2 130/4/2 131/4/2
f 131/4/2 130/4/2 132/4/2
f 133/5/2 134/5/2 135/5/2
f 135/5/2 134/5/2 136/5/2
f 137/3/2 138/3/2 143/3/2
f 139/3/2 140/3/2 144/3/2
f 144/3/2 140/3/2 145/3/2
f 141/3/2 142/3/2 146/3/2
f 137/3/2 143/3/2 147/3/2
f 144/3/2 145/3/2 150/3/2
f 150/3/2 145/3/2 151/3/2
f 146/3/2 142/3/2 154/3/2
f 148/3/2 149/3/2 155/3/2
f 153/3/2 154/3/2 155/3/2
f 152/3/2 153/3/2 155/3/2
f 137/3/2 147/3/2 155/3/2
f 151/3/2 152/3/2 155/3/2
f 150/3/2 151/3/2 155/3/2
f 149/3/2 150/3/2 155/3/2
f 147/3/2 148/3/2 155/3/2
f 154/3/2 142/3/2 156/3/2
f 155/3/2 154/3/2 156/3/2
f 157/2/2 158/2/2 165/2/2
f 158/1/2 159/1/2 166/1/2
f 165/2/2 158/2/2 166/2/2
f 159/2/2 160/2/2 167/2/2
f 166/1/2 159/1/2 167/1/2
f 167/2/2 160/2/2 168/2/2
f 161/2/2 162/2/2 169/2/2
f 162/1/2 163/1/2 170/1/2
f 169/2/2 162/2/2 170/2/2
f 163/2/2 164/2/2 171/2/2
f 170/1/2 163/1/2 171/1/2
f 171/2/2 164/2/2 172/2/2
f 165/1/2 166/1/2 173/1/2
f 167/1/2 168/1/2 173/1/2
f 166/1/2 167/1/2 173/1/2
f 173/1/2 168/1/2 174/1/2
f 174/1/2 168/1/2 175/1/2
f 175/1/2 168/1/2 176/1/2
f 169/1/2 170/1/2 177/1/2
f 171/1/2 172/1/2 177/1/2
f 170/1/2 171/1/2 177/1/2
f 177/1/2 172/1/2 178/1/2
f 178/1/2 172/1/2 179/1/2
f 179/1/2 172/1/2 180/1/2
f 173/2/2 174/2/2 181/2/2
f 174/1/2 175/1/2 182/1/2
f 181/2/2 174/2/2 182/2/2
f 175/2/2 176/2/2 183/2/2
f 182/1/2 175/1/2 183/1/2
f 183/2/2 176/2/2 184/2/2
f 177/2/2 178/2/2 185/2/2
f 178/1/2 179/1/2 186/1/2
f 185/2/2 178/2/2 186/2/2
f 179/2/2 180/2/2 187/2/2
f 186/1/2 179/1/2 187/1/2
f 187/2/2 180/2/2 188/2/2
f 191/4/3 190/4/3 189/4/3
f 192/4/3 190/4/3 191/4/3
f 195/3/3 194/3/3 193/3/3
f 196/3/3 194/3/3 195/3/3
f 197/3/3 195/3/3 193/3/3
f 198/3/3 194/3/3 196/3/3
f 199/3/3 197/3/3 193/3/3
f 199/3/3 198/3/3 197/3/3
f 200/3/3 194/3/3 198/3/3
f 200/3/3 198/3/3 199/3/3
f 205/2/3 202/2/3 201/2/3
f 206/1/3 203/1/3 202/1/3
f 206/2/3 202/2/3 205/2/3
f 207/2/3 204/2/3 203/2/3
f 207/1/3 203/1/3 206/1/3
f 208/2/3 204/2/3 207/2/3
f 211/5/3 210/5/3 209/5/3
f 212/5/3 210/5/3 211/5/3
f 217/2/3 214/2/3 213/2/3
f 218/1/3 215/1/3 214/1/3
f 218/2/3 214/2/3 217/2/3
f 219/2/3 216/2/3 215/2/3
f 219/1/3 215/1/3 218/1/3
f 220/2/3 216/2/3 219/2/3
f 223/5/3 222/5/3 221/5/3
f 224/5/3 222/5/3 223/5/3
f 228/5/3 226/5/3 225/5/3
f 229/5/3 228/5/3 227/5/3
f 230/5/3 226/5/3 228/5/3
f 230/5/3 228/5/3 229/5/3
f 231/5/3 226/5/3 230/5/3
f 236/2/3 233/2/3 232/2/3
f 237/1/3 234/1/3 233/1/3
f 237/2/3 233/2/3 236/2/3
f 238/2/3 235/2/3 234/2/3
f 238/1/3 234/1/3 237/1/3
f 239/2/3 235/2/3 238/2/3
f 244/2/3 241/2/3 240/2/3
f 245/1/3 242/1/3 241/1/3
f 245/2/3 241/2/3 244/2/3
f 246/2/3 243/2/3 242/2/3
f 246/1/3 242/1/3 245/1/3
f 247/2/3 243/2/3 246/2/3
f 250/3/3 249/3/3 248/3/3
f 251/3/3 249/3/3 250/3/3
f 252/3/4 253/3/4 254/3/4
f 254/3/4 253/3/4 255/3/4
f 256/3/4 257/3/4 258/3/4
f 258/3/4 257/3/4 259/3/4
f 260/5/4 261/5/4 262/5/4
f 262/5/4 261/5/4 263/5/4
f 264/2/4 265/2/4 268/2/4
f 265/1/4 266/1/4 269/1/4
f 268/2/4 265/2/4 269/2/4
f 266/2/4 267/2/4 270/2/4
f 269/1/4 266/1/4 270/1/4
f 270/2/4 267/2/4 271/2/4
f 272/2/4 273/2/4 276/2/4
f 273/1/4 274/1/4 277/1/4
f 276/2/4 273/2/4 277/2/4
f 274/2/4 275/2/4 278/2/4
f 277/1/4 274/1/4 278/1/4
f 278/2/4 275/2/4 279/2/4
f 280/5/4 281/5/4 282/5/4
f 282/5/4 281/5/4 283/5/4
f 284/5/4 285/5/4 286/5/4
f 286/5/4 285/5/4 287/5/4
f 288/5/4 289/5/4 290/5/4
f 290/5/4 289/5/4 291/5/4
f 292/2/4 293/2/4 296/2/4
f 293/1/4 294/1/4 297/1/4
f 296/2/4 293/2/4 297/2/4
f 294/2/4 295/2/4 298/2/4
f 297/1/4 294/1/4 298/1/4
f 298/2/4 295/2/4 299/2/4
f 300/2/4 301/2/4 304/2/4
f 301/1/4 302/1/4 305/1/4
f 304/2/4 301/2/4 305/2/4
f 302/2/4 303/2/4 306/2/4
f 305/1/4 302/1/4 306/1/4
f 306/2/4 303/2/4 307/2/4
f 308/3/4 309/3/4 310/3/4
f 310/3/4 309/3/4 311/3/4
f 316/2/5 313/2/5 312/2/5
f 317/2/5 313/2/5 316/2/5
f 318/2/5 315/2/5 314/2/5
f 319/2/5 315/2/5 318/2/5
f 320/1/5 317/1/5 316/1/5
f 321/1/5 317/1/5 320/1/5
f 322/1/5 319/1/5 318/1/5
f 323/1/5 319/1/5 322/1/5
f 324/2/5 321/2/5 320/2/5
f 325/2/5 321/2/5 324/2/5
f 326/2/5 323/2/5 322/2/5
f 327/2/5 323/2/5 326/2/5
f 332/2/5 329/2/5 328/2/5
f 333/2/5 329/2/5 332/2/5
f 334/2/5 331/2/5 330/2/5
f 335/2/5 331/2/5 334/2/5
f 336/1/5 333/1/5 332/1/5
f 337/1/5 333/1/5 336/1/5
f 338/1/5 335/1/5 334/1/5
f 339/1/5 335/1/5 338/1/5
f 340/2/5 337/2/5 336/2/5
f 341/2/5 337/2/5 340/2/5
f 342/2/5 339/2/5 338/2/5
f 343/2/5 339/2/5 342/2/5
f 346/3/5 345/3/5 344/3/5
f 347/3/5 345/3/5 346/3/5
f 348/3/5 347/3/5 346/3/5
f 349/3/5 347/3/5 348/3/5
f 350/3/5 349/3/5 348/3/5
f 351/3/5 349/3/5 350/3/5
f 352/3/5 351/3/5 350/3/5
f 353/3/5 351/3/5 352/3/5
f 354/3/5 353/3/5 352/3/5
f 355/3/5 353/3/5 354/3/5
f 356/3/5 355/3/5 354/3/5
f 357/3/5 355/3/5 356/3/5
f 358/3/5 357/3/5 356/3/5
f 359/3/5 357/3/5 358/3/5
f 360/3/5 359/3/5 358/3/5
f 361/3/5 359/3/5 360/3/5
f 362/3/5 361/3/5 360/3/5
f 363/3/5 361/3/5 362/3/5
f 366/5/5 365/5/5 364/5/5
f 367/5/5 365/5/5 366/5/5
f 370/4/5 369/4/5 368/4/5
f 371/4/5 369/4/5 370/4/5
f 372/3/6 373/3/6 374/3/6
f 374/3/6 373/3/6 375/3/6
f 376/2/6 377/2/6 380/2/6
f 380/2/6 377/2/6 381/2/6
f 378/2/6 379/2/6 382/2/6
f 382/2/6 379/2/6 383/2/6
f 380/1/6 381/1/6 384/1/6
f 384/1/6 381/1/6 385/1/6
f 382/1/6 383/1/6 386/1/6
f 386/1/6 383/1/6 387/1/6
f 384/2/6 385/2/6 388/2/6
f 388/2/6 385/2/6 389/2/6
f 386/2/6 387/2/6 390/2/6
f 390/2/6 387/2/6 391/2/6
f 392/2/6 393/2/6 396/2/6
f 396/2/6 393/2/6 397/2/6
f 394/2/6 395/2/6 398/2/6
f 398/2/6 395/2/6 399/2/6
f 396/1/6 397/1/6 400/1/6
f 400/1/6 397/1/6 401/1/6
f 398/1/6 399/1/6 402/1/6
f 402/1/6 399/1/6 403/1/6
f 400/2/6 401/2/6 404/2/6
f 404/2/6 401/2/6 405/2/6
f 402/2/6 403/2/6 406/2/6
f 406/2/6 403/2/6 407/2/6
f 408/4/6 409/4/6 410/4/6
f 410/4/6 409/4/6 411/4/6
f 412/5/6 413/5/6 414/5/6
f 414/5/6 413/5/6 415/5/6
f 416/5/6 417/5/6 418/5/6
f 418/5/6 417/5/6 419/5/6
f 420/3/6 421/3/6 422/3/6
f 422/3/6 421/3/6 423/3/6
f 423/3/6 421/3/6 424/3/6
f 424/3/6 421/3/6 425/3/6
f 420/3/6 422/3/6 426/3/6
f 423/5/6 424/5/6 427/5/6
f 427/5/6 424/5/6 428/5/6
f 426/5/6 427/5/6 428/5/6
f 428/5/6 424/5/6 429/5/6
f 425/3/6 421/3/6 430/3/6
f 420/3/6 426/3/6 431/3/6
f 426/5/6 428/5/6 431/5/6
f 431/5/6 428/5/6 432/5/6
f 433/5/6 434/5/6 435/5/6
f 430/3/6 421/3/6 436/3/6
f 420/3/6 431/3/6 437/3/6
f 433/5/6 435/5/6 438/5/6
f 435/5/6 436/5/6 438/5/6
f 436/3/6 421/3/6 439/3/6
f 438/5/6 436/5/6 439/5/6
f 420/3/6 437/3/6 440/3/6
f 437/3/6 438/3/6 440/3/6
f 438/3/6 439/3/6 440/3/6
f 439/3/6 421/3/6 441/3/6
f 440/3/6 439/3/6 441/3/6
f 442/5/6 443/5/6 444/5/6
f 444/5/6 443/5/6 445/5/6
f 446/5/6 447/5/6 448/5/6
f 448/5/6 447/5/6 449/5/6
f 449/5/6 447/5/6 450/5/6
f 450/5/6 447/5/6 451/5/6
