# MagicaVoxel @ Ephtracy

# group
o 

# material
mtllib BookShelf.mtl
usemtl palette

# normals
vn -1 0 0
vn 1 0 0
vn 0 0 1
vn 0 0 -1
vn 0 -1 0
vn 0 1 0

# texcoords
vt 0.0683594 0.5
vt 0.537109 0.5
vt 0.841797 0.5
vt 0.884766 0.5
vt 0.923828 0.5

# verts
v -1.1 0 -1.5
v -1.1 0 -2
v -1.1 1.7 -1.5
v -1.1 1.7 -2
v -0.9 0.5 -1.6
v -0.9 0.5 -1.7
v -0.9 0.8 -1.6
v -0.9 0.8 -1.7
v -0.9 0.9 -1.6
v -0.9 0.9 -1.7
v -0.9 1.2 -1.6
v -0.9 1.2 -1.7
v -0.9 1.3 -1.6
v -0.9 1.3 -1.7
v -0.9 1.6 -1.6
v -0.9 1.6 -1.7
v -0.8 0.1 -1.6
v -0.8 0.1 -1.7
v -0.8 0.4 -1.6
v -0.8 0.4 -1.7
v -0.7 0.9 -1.6
v -0.7 0.9 -1.7
v -0.7 1.2 -1.6
v -0.7 1.2 -1.7
v -0.7 1.3 -1.6
v -0.7 1.3 -1.7
v -0.7 1.6 -1.6
v -0.7 1.6 -1.7
v -0.6 0.5 -1.6
v -0.6 0.5 -1.7
v -0.6 0.8 -1.6
v -0.6 0.8 -1.7
v -0.5 0.1 -1.6
v -0.5 0.1 -1.7
v -0.5 0.4 -1.6
v -0.5 0.4 -1.7
v -0.5 0.9 -1.6
v -0.5 0.9 -1.7
v -0.5 1.2 -1.6
v -0.5 1.2 -1.7
v -0.5 1.3 -1.6
v -0.5 1.3 -1.7
v -0.5 1.6 -1.6
v -0.5 1.6 -1.7
v -0.3 0.1 -1.6
v -0.3 0.1 -1.7
v -0.3 0.4 -1.6
v -0.3 0.4 -1.7
v -0.3 0.5 -1.6
v -0.3 0.5 -1.7
v -0.3 0.8 -1.6
v -0.3 0.8 -1.7
v -0.3 0.9 -1.6
v -0.3 0.9 -1.7
v -0.3 1.2 -1.6
v -0.3 1.2 -1.7
v -0.3 1.3 -1.6
v -0.3 1.3 -1.7
v -0.3 1.6 -1.6
v -0.3 1.6 -1.7
v -0.1 0.1 -1.5
v -0.1 0.1 -1.6
v -0.1 0.4 -1.6
v -0.1 0.5 -1.6
v -0.1 0.5 -1.7
v -0.1 0.8 -1.6
v -0.1 0.8 -1.7
v -0.1 0.9 -1.6
v -0.1 0.9 -1.7
v -0.1 1.2 -1.6
v -0.1 1.2 -1.7
v -0.1 1.3 -1.6
v -0.1 1.3 -1.7
v -0.1 1.6 -1.5
v -0.1 1.6 -1.7
v -1 0.1 -1.5
v -1 0.1 -1.6
v -1 0.4 -1.6
v -1 0.5 -1.6
v -1 0.5 -1.7
v -1 0.8 -1.6
v -1 0.8 -1.7
v -1 0.9 -1.6
v -1 0.9 -1.7
v -1 1.2 -1.6
v -1 1.2 -1.7
v -1 1.3 -1.6
v -1 1.3 -1.7
v -1 1.6 -1.5
v -1 1.6 -1.7
v -0.9 0.1 -1.6
v -0.9 0.1 -1.7
v -0.9 0.4 -1.6
v -0.9 0.4 -1.7
v -0.8 0.5 -1.6
v -0.8 0.5 -1.7
v -0.8 0.8 -1.6
v -0.8 0.8 -1.7
v -0.8 0.9 -1.6
v -0.8 0.9 -1.7
v -0.8 1.2 -1.6
v -0.8 1.2 -1.7
v -0.8 1.3 -1.6
v -0.8 1.3 -1.7
v -0.8 1.6 -1.6
v -0.8 1.6 -1.7
v -0.7 0.1 -1.6
v -0.7 0.1 -1.7
v -0.7 0.4 -1.6
v -0.7 0.4 -1.7
v -0.6 0.9 -1.6
v -0.6 0.9 -1.7
v -0.6 1.2 -1.6
v -0.6 1.2 -1.7
v -0.6 1.3 -1.6
v -0.6 1.3 -1.7
v -0.6 1.6 -1.6
v -0.6 1.6 -1.7
v -0.4 0.1 -1.6
v -0.4 0.1 -1.7
v -0.4 0.4 -1.6
v -0.4 0.4 -1.7
v -0.4 0.5 -1.6
v -0.4 0.5 -1.7
v -0.4 0.8 -1.6
v -0.4 0.8 -1.7
v -0.4 0.9 -1.6
v -0.4 0.9 -1.7
v -0.4 1.2 -1.6
v -0.4 1.2 -1.7
v -0.4 1.3 -1.6
v -0.4 1.3 -1.7
v -0.4 1.6 -1.6
v -0.4 1.6 -1.7
v -0.2 0.5 -1.6
v -0.2 0.5 -1.7
v -0.2 0.8 -1.6
v -0.2 0.8 -1.7
v -0.2 0.9 -1.6
v -0.2 0.9 -1.7
v -0.2 1.2 -1.6
v -0.2 1.2 -1.7
v -0.2 1.3 -1.6
v -0.2 1.3 -1.7
v -0.2 1.6 -1.6
v -0.2 1.6 -1.7
v 0 0 -1.5
v 0 0 -2
v 0 1.7 -1.5
v 0 1.7 -2
v -1.1 0 -1.5
v -1.1 1.7 -1.5
v -1 0.1 -1.5
v -1 1.6 -1.5
v -0.1 0.1 -1.5
v -0.1 1.6 -1.5
v 0 0 -1.5
v 0 1.7 -1.5
v -1 0.1 -1.6
v -1 0.4 -1.6
v -1 0.5 -1.6
v -1 0.8 -1.6
v -1 0.9 -1.6
v -1 1.2 -1.6
v -1 1.3 -1.6
v -0.9 0.1 -1.6
v -0.9 0.4 -1.6
v -0.9 0.5 -1.6
v -0.9 0.8 -1.6
v -0.9 0.9 -1.6
v -0.9 1.2 -1.6
v -0.9 1.3 -1.6
v -0.9 1.6 -1.6
v -0.8 0.1 -1.6
v -0.8 0.4 -1.6
v -0.8 0.5 -1.6
v -0.8 0.8 -1.6
v -0.8 0.9 -1.6
v -0.8 1.2 -1.6
v -0.8 1.3 -1.6
v -0.8 1.6 -1.6
v -0.7 0.1 -1.6
v -0.7 0.4 -1.6
v -0.7 0.9 -1.6
v -0.7 1.2 -1.6
v -0.7 1.3 -1.6
v -0.7 1.6 -1.6
v -0.6 0.5 -1.6
v -0.6 0.8 -1.6
v -0.6 0.9 -1.6
v -0.6 1.2 -1.6
v -0.6 1.3 -1.6
v -0.6 1.6 -1.6
v -0.5 0.1 -1.6
v -0.5 0.4 -1.6
v -0.5 0.5 -1.6
v -0.5 0.8 -1.6
v -0.5 0.9 -1.6
v -0.5 1.2 -1.6
v -0.5 1.3 -1.6
v -0.5 1.6 -1.6
v -0.4 0.1 -1.6
v -0.4 0.4 -1.6
v -0.4 0.5 -1.6
v -0.4 0.8 -1.6
v -0.4 0.9 -1.6
v -0.4 1.2 -1.6
v -0.4 1.3 -1.6
v -0.4 1.6 -1.6
v -0.3 0.1 -1.6
v -0.3 0.4 -1.6
v -0.3 0.5 -1.6
v -0.3 0.8 -1.6
v -0.3 0.9 -1.6
v -0.3 1.2 -1.6
v -0.3 1.3 -1.6
v -0.3 1.6 -1.6
v -0.2 0.1 -1.6
v -0.2 0.4 -1.6
v -0.2 0.5 -1.6
v -0.2 0.8 -1.6
v -0.2 0.9 -1.6
v -0.2 1.2 -1.6
v -0.2 1.3 -1.6
v -0.2 1.6 -1.6
v -0.1 0.1 -1.6
v -0.1 0.4 -1.6
v -0.1 0.5 -1.6
v -0.1 0.8 -1.6
v -0.1 0.9 -1.6
v -0.1 1.2 -1.6
v -0.1 1.3 -1.6
v -1 0.5 -1.7
v -1 0.8 -1.7
v -1 0.9 -1.7
v -1 1.2 -1.7
v -1 1.3 -1.7
v -1 1.6 -1.7
v -0.9 0.1 -1.7
v -0.9 0.4 -1.7
v -0.9 0.5 -1.7
v -0.9 0.8 -1.7
v -0.9 0.9 -1.7
v -0.9 1.2 -1.7
v -0.9 1.3 -1.7
v -0.9 1.6 -1.7
v -0.8 0.1 -1.7
v -0.8 0.4 -1.7
v -0.8 0.5 -1.7
v -0.8 0.8 -1.7
v -0.8 0.9 -1.7
v -0.8 1.2 -1.7
v -0.8 1.3 -1.7
v -0.8 1.6 -1.7
v -0.7 0.1 -1.7
v -0.7 0.4 -1.7
v -0.7 0.5 -1.7
v -0.7 0.8 -1.7
v -0.7 0.9 -1.7
v -0.7 1.2 -1.7
v -0.7 1.3 -1.7
v -0.7 1.6 -1.7
v -0.6 0.1 -1.7
v -0.6 0.4 -1.7
v -0.6 0.5 -1.7
v -0.6 0.8 -1.7
v -0.6 0.9 -1.7
v -0.6 1.2 -1.7
v -0.6 1.3 -1.7
v -0.6 1.6 -1.7
v -0.5 0.1 -1.7
v -0.5 0.4 -1.7
v -0.5 0.9 -1.7
v -0.5 1.2 -1.7
v -0.5 1.3 -1.7
v -0.5 1.6 -1.7
v -0.4 0.1 -1.7
v -0.4 0.4 -1.7
v -0.4 0.5 -1.7
v -0.4 0.8 -1.7
v -0.4 0.9 -1.7
v -0.4 1.2 -1.7
v -0.4 1.3 -1.7
v -0.4 1.6 -1.7
v -0.3 0.1 -1.7
v -0.3 0.4 -1.7
v -0.3 0.5 -1.7
v -0.3 0.8 -1.7
v -0.3 0.9 -1.7
v -0.3 1.2 -1.7
v -0.3 1.3 -1.7
v -0.3 1.6 -1.7
v -0.2 0.5 -1.7
v -0.2 0.8 -1.7
v -0.2 0.9 -1.7
v -0.2 1.2 -1.7
v -0.2 1.3 -1.7
v -0.2 1.6 -1.7
v -0.1 0.5 -1.7
v -0.1 0.8 -1.7
v -0.1 0.9 -1.7
v -0.1 1.2 -1.7
v -0.1 1.3 -1.7
v -0.1 1.6 -1.7
v -1.1 0 -2
v -1.1 1.7 -2
v 0 0 -2
v 0 1.7 -2
v -1.1 0 -1.5
v 0 0 -1.5
v -1.1 0 -2
v 0 0 -2
v -0.9 0.4 -1.6
v -0.8 0.4 -1.6
v -0.7 0.4 -1.6
v -0.5 0.4 -1.6
v -0.4 0.4 -1.6
v -0.3 0.4 -1.6
v -0.9 0.4 -1.7
v -0.8 0.4 -1.7
v -0.7 0.4 -1.7
v -0.6 0.4 -1.7
v -0.5 0.4 -1.7
v -0.4 0.4 -1.7
v -0.3 0.4 -1.7
v -1 0.8 -1.6
v -0.9 0.8 -1.6
v -0.8 0.8 -1.6
v -0.6 0.8 -1.6
v -0.4 0.8 -1.6
v -0.3 0.8 -1.6
v -0.2 0.8 -1.6
v -0.1 0.8 -1.6
v -1 0.8 -1.7
v -0.9 0.8 -1.7
v -0.8 0.8 -1.7
v -0.7 0.8 -1.7
v -0.6 0.8 -1.7
v -0.4 0.8 -1.7
v -0.3 0.8 -1.7
v -0.2 0.8 -1.7
v -0.1 0.8 -1.7
v -1 1.2 -1.6
v -0.9 1.2 -1.6
v -0.8 1.2 -1.6
v -0.7 1.2 -1.6
v -0.6 1.2 -1.6
v -0.5 1.2 -1.6
v -0.4 1.2 -1.6
v -0.3 1.2 -1.6
v -0.2 1.2 -1.6
v -0.1 1.2 -1.6
v -1 1.2 -1.7
v -0.9 1.2 -1.7
v -0.8 1.2 -1.7
v -0.7 1.2 -1.7
v -0.6 1.2 -1.7
v -0.5 1.2 -1.7
v -0.4 1.2 -1.7
v -0.3 1.2 -1.7
v -0.2 1.2 -1.7
v -0.1 1.2 -1.7
v -1 1.6 -1.5
v -0.1 1.6 -1.5
v -0.9 1.6 -1.6
v -0.8 1.6 -1.6
v -0.7 1.6 -1.6
v -0.6 1.6 -1.6
v -0.5 1.6 -1.6
v -0.4 1.6 -1.6
v -0.3 1.6 -1.6
v -0.2 1.6 -1.6
v -1 1.6 -1.7
v -0.9 1.6 -1.7
v -0.8 1.6 -1.7
v -0.7 1.6 -1.7
v -0.6 1.6 -1.7
v -0.5 1.6 -1.7
v -0.4 1.6 -1.7
v -0.3 1.6 -1.7
v -0.2 1.6 -1.7
v -0.1 1.6 -1.7
v -1 0.1 -1.5
v -0.1 0.1 -1.5
v -1 0.1 -1.6
v -0.9 0.1 -1.6
v -0.8 0.1 -1.6
v -0.7 0.1 -1.6
v -0.5 0.1 -1.6
v -0.4 0.1 -1.6
v -0.3 0.1 -1.6
v -0.2 0.1 -1.6
v -0.1 0.1 -1.6
v -0.9 0.1 -1.7
v -0.8 0.1 -1.7
v -0.7 0.1 -1.7
v -0.6 0.1 -1.7
v -0.5 0.1 -1.7
v -0.4 0.1 -1.7
v -0.3 0.1 -1.7
v -1 0.5 -1.6
v -0.9 0.5 -1.6
v -0.8 0.5 -1.6
v -0.6 0.5 -1.6
v -0.4 0.5 -1.6
v -0.3 0.5 -1.6
v -0.2 0.5 -1.6
v -0.1 0.5 -1.6
v -1 0.5 -1.7
v -0.9 0.5 -1.7
v -0.8 0.5 -1.7
v -0.7 0.5 -1.7
v -0.6 0.5 -1.7
v -0.4 0.5 -1.7
v -0.3 0.5 -1.7
v -0.2 0.5 -1.7
v -0.1 0.5 -1.7
v -1 0.9 -1.6
v -0.9 0.9 -1.6
v -0.8 0.9 -1.6
v -0.7 0.9 -1.6
v -0.6 0.9 -1.6
v -0.5 0.9 -1.6
v -0.4 0.9 -1.6
v -0.3 0.9 -1.6
v -0.2 0.9 -1.6
v -0.1 0.9 -1.6
v -1 0.9 -1.7
v -0.9 0.9 -1.7
v -0.8 0.9 -1.7
v -0.7 0.9 -1.7
v -0.6 0.9 -1.7
v -0.5 0.9 -1.7
v -0.4 0.9 -1.7
v -0.3 0.9 -1.7
v -0.2 0.9 -1.7
v -0.1 0.9 -1.7
v -1 1.3 -1.6
v -0.9 1.3 -1.6
v -0.8 1.3 -1.6
v -0.7 1.3 -1.6
v -0.6 1.3 -1.6
v -0.5 1.3 -1.6
v -0.4 1.3 -1.6
v -0.3 1.3 -1.6
v -0.2 1.3 -1.6
v -0.1 1.3 -1.6
v -1 1.3 -1.7
v -0.9 1.3 -1.7
v -0.8 1.3 -1.7
v -0.7 1.3 -1.7
v -0.6 1.3 -1.7
v -0.5 1.3 -1.7
v -0.4 1.3 -1.7
v -0.3 1.3 -1.7
v -0.2 1.3 -1.7
v -0.1 1.3 -1.7
v -1.1 1.7 -1.5
v 0 1.7 -1.5
v -1.1 1.7 -2
v 0 1.7 -2

# faces
f 3/2/1 2/2/1 1/2/1
f 4/2/1 2/2/1 3/2/1
f 7/3/1 6/3/1 5/3/1
f 8/3/1 6/3/1 7/3/1
f 11/4/1 10/4/1 9/4/1
f 12/4/1 10/4/1 11/4/1
f 15/3/1 14/3/1 13/3/1
f 16/3/1 14/3/1 15/3/1
f 19/1/1 18/1/1 17/1/1
f 20/1/1 18/1/1 19/1/1
f 23/5/1 22/5/1 21/5/1
f 24/5/1 22/5/1 23/5/1
f 27/4/1 26/4/1 25/4/1
f 28/4/1 26/4/1 27/4/1
f 31/1/1 30/1/1 29/1/1
f 32/1/1 30/1/1 31/1/1
f 35/5/1 34/5/1 33/5/1
f 36/5/1 34/5/1 35/5/1
f 39/3/1 38/3/1 37/3/1
f 40/3/1 38/3/1 39/3/1
f 43/5/1 42/5/1 41/5/1
f 44/5/1 42/5/1 43/5/1
f 47/3/1 46/3/1 45/3/1
f 48/3/1 46/3/1 47/3/1
f 51/4/1 50/4/1 49/4/1
f 52/4/1 50/4/1 51/4/1
f 55/5/1 54/5/1 53/5/1
f 56/5/1 54/5/1 55/5/1
f 59/3/1 58/3/1 57/3/1
f 60/3/1 58/3/1 59/3/1
f 63/2/1 62/2/1 61/2/1
f 64/2/1 63/2/1 61/2/1
f 66/2/1 64/2/1 61/2/1
f 66/2/1 65/2/1 64/2/1
f 67/2/1 65/2/1 66/2/1
f 68/2/1 66/2/1 61/2/1
f 70/2/1 68/2/1 61/2/1
f 70/2/1 69/2/1 68/2/1
f 71/2/1 69/2/1 70/2/1
f 72/2/1 70/2/1 61/2/1
f 74/2/1 72/2/1 61/2/1
f 74/2/1 73/2/1 72/2/1
f 75/2/1 73/2/1 74/2/1
f 76/2/2 77/2/2 78/2/2
f 76/2/2 78/2/2 79/2/2
f 76/2/2 79/2/2 81/2/2
f 79/2/2 80/2/2 81/2/2
f 81/2/2 80/2/2 82/2/2
f 76/2/2 81/2/2 83/2/2
f 76/2/2 83/2/2 85/2/2
f 83/2/2 84/2/2 85/2/2
f 85/2/2 84/2/2 86/2/2
f 76/2/2 85/2/2 87/2/2
f 76/2/2 87/2/2 89/2/2
f 87/2/2 88/2/2 89/2/2
f 89/2/2 88/2/2 90/2/2
f 91/5/2 92/5/2 93/5/2
f 93/5/2 92/5/2 94/5/2
f 95/3/2 96/3/2 97/3/2
f 97/3/2 96/3/2 98/3/2
f 99/4/2 100/4/2 101/4/2
f 101/4/2 100/4/2 102/4/2
f 103/3/2 104/3/2 105/3/2
f 105/3/2 104/3/2 106/3/2
f 107/1/2 108/1/2 109/1/2
f 109/1/2 108/1/2 110/1/2
f 111/5/2 112/5/2 113/5/2
f 113/5/2 112/5/2 114/5/2
f 115/4/2 116/4/2 117/4/2
f 117/4/2 116/4/2 118/4/2
f 119/5/2 120/5/2 121/5/2
f 121/5/2 120/5/2 122/5/2
f 123/3/2 124/3/2 125/3/2
f 125/3/2 124/3/2 126/3/2
f 127/3/2 128/3/2 129/3/2
f 129/3/2 128/3/2 130/3/2
f 131/5/2 132/5/2 133/5/2
f 133/5/2 132/5/2 134/5/2
f 135/4/2 136/4/2 137/4/2
f 137/4/2 136/4/2 138/4/2
f 139/5/2 140/5/2 141/5/2
f 141/5/2 140/5/2 142/5/2
f 143/3/2 144/3/2 145/3/2
f 145/3/2 144/3/2 146/3/2
f 147/2/2 148/2/2 149/2/2
f 149/2/2 148/2/2 150/2/2
f 153/2/3 152/2/3 151/2/3
f 154/2/3 152/2/3 153/2/3
f 155/2/3 153/2/3 151/2/3
f 156/2/3 152/2/3 154/2/3
f 157/2/3 155/2/3 151/2/3
f 157/2/3 156/2/3 155/2/3
f 158/2/3 152/2/3 156/2/3
f 158/2/3 156/2/3 157/2/3
f 166/5/3 160/5/3 159/5/3
f 167/2/3 161/2/3 160/2/3
f 167/5/3 160/5/3 166/5/3
f 168/2/3 161/2/3 167/2/3
f 169/2/3 163/2/3 162/2/3
f 170/2/3 163/2/3 169/2/3
f 171/2/3 165/2/3 164/2/3
f 172/2/3 165/2/3 171/2/3
f 175/2/3 168/2/3 167/2/3
f 176/3/3 169/3/3 168/3/3
f 176/2/3 168/2/3 175/2/3
f 177/2/3 170/2/3 169/2/3
f 177/3/3 169/3/3 176/3/3
f 178/4/3 171/4/3 170/4/3
f 178/2/3 170/2/3 177/2/3
f 179/2/3 172/2/3 171/2/3
f 179/4/3 171/4/3 178/4/3
f 180/3/3 173/3/3 172/3/3
f 180/2/3 172/2/3 179/2/3
f 181/3/3 173/3/3 180/3/3
f 182/1/3 175/1/3 174/1/3
f 183/2/3 176/2/3 175/2/3
f 183/1/3 175/1/3 182/1/3
f 184/2/3 178/2/3 177/2/3
f 185/2/3 180/2/3 179/2/3
f 186/2/3 180/2/3 185/2/3
f 188/2/3 176/2/3 183/2/3
f 189/2/3 184/2/3 177/2/3
f 190/5/3 185/5/3 184/5/3
f 190/2/3 184/2/3 189/2/3
f 191/2/3 186/2/3 185/2/3
f 191/5/3 185/5/3 190/5/3
f 192/4/3 187/4/3 186/4/3
f 192/2/3 186/2/3 191/2/3
f 193/4/3 187/4/3 192/4/3
f 195/2/3 188/2/3 183/2/3
f 196/1/3 189/1/3 188/1/3
f 196/2/3 188/2/3 195/2/3
f 197/2/3 190/2/3 189/2/3
f 197/1/3 189/1/3 196/1/3
f 198/2/3 190/2/3 197/2/3
f 199/2/3 192/2/3 191/2/3
f 200/2/3 192/2/3 199/2/3
f 202/5/3 195/5/3 194/5/3
f 203/2/3 196/2/3 195/2/3
f 203/5/3 195/5/3 202/5/3
f 204/3/3 197/3/3 196/3/3
f 204/2/3 196/2/3 203/2/3
f 205/2/3 198/2/3 197/2/3
f 205/3/3 197/3/3 204/3/3
f 206/3/3 199/3/3 198/3/3
f 206/2/3 198/2/3 205/2/3
f 207/2/3 200/2/3 199/2/3
f 207/3/3 199/3/3 206/3/3
f 208/5/3 201/5/3 200/5/3
f 208/2/3 200/2/3 207/2/3
f 209/5/3 201/5/3 208/5/3
f 211/2/3 204/2/3 203/2/3
f 212/2/3 204/2/3 211/2/3
f 213/2/3 206/2/3 205/2/3
f 214/2/3 206/2/3 213/2/3
f 215/2/3 208/2/3 207/2/3
f 216/2/3 208/2/3 215/2/3
f 218/3/3 211/3/3 210/3/3
f 219/2/3 212/2/3 211/2/3
f 219/3/3 211/3/3 218/3/3
f 220/4/3 213/4/3 212/4/3
f 220/2/3 212/2/3 219/2/3
f 221/2/3 214/2/3 213/2/3
f 221/4/3 213/4/3 220/4/3
f 222/5/3 215/5/3 214/5/3
f 222/2/3 214/2/3 221/2/3
f 223/2/3 216/2/3 215/2/3
f 223/5/3 215/5/3 222/5/3
f 224/3/3 217/3/3 216/3/3
f 224/2/3 216/2/3 223/2/3
f 225/3/3 217/3/3 224/3/3
f 226/4/3 219/4/3 218/4/3
f 227/2/3 220/2/3 219/2/3
f 227/4/3 219/4/3 226/4/3
f 228/2/3 220/2/3 227/2/3
f 229/2/3 222/2/3 221/2/3
f 230/2/3 222/2/3 229/2/3
f 231/2/3 224/2/3 223/2/3
f 232/2/3 224/2/3 231/2/3
f 241/1/3 234/1/3 233/1/3
f 242/1/3 234/1/3 241/1/3
f 243/5/3 236/5/3 235/5/3
f 244/5/3 236/5/3 243/5/3
f 245/4/3 238/4/3 237/4/3
f 246/4/3 238/4/3 245/4/3
f 247/4/3 240/4/3 239/4/3
f 248/4/3 240/4/3 247/4/3
f 257/5/3 250/5/3 249/5/3
f 258/5/3 250/5/3 257/5/3
f 259/3/3 252/3/3 251/3/3
f 260/3/3 252/3/3 259/3/3
f 261/5/3 254/5/3 253/5/3
f 262/5/3 254/5/3 261/5/3
f 263/3/3 256/3/3 255/3/3
f 264/3/3 256/3/3 263/3/3
f 265/4/3 258/4/3 257/4/3
f 266/4/3 258/4/3 265/4/3
f 271/4/3 264/4/3 263/4/3
f 272/4/3 264/4/3 271/4/3
f 273/4/3 268/4/3 267/4/3
f 274/4/3 268/4/3 273/4/3
f 275/3/3 270/3/3 269/3/3
f 276/3/3 270/3/3 275/3/3
f 285/1/3 278/1/3 277/1/3
f 286/1/3 278/1/3 285/1/3
f 287/5/3 280/5/3 279/5/3
f 288/5/3 280/5/3 287/5/3
f 289/1/3 282/1/3 281/1/3
f 290/1/3 282/1/3 289/1/3
f 291/4/3 284/4/3 283/4/3
f 292/4/3 284/4/3 291/4/3
f 299/3/3 294/3/3 293/3/3
f 300/3/3 294/3/3 299/3/3
f 301/4/3 296/4/3 295/4/3
f 302/4/3 296/4/3 301/4/3
f 303/5/3 298/5/3 297/5/3
f 304/5/3 298/5/3 303/5/3
f 305/2/4 306/2/4 307/2/4
f 307/2/4 306/2/4 308/2/4
f 311/2/5 310/2/5 309/2/5
f 312/2/5 310/2/5 311/2/5
f 319/2/5 314/2/5 313/2/5
f 320/2/5 314/2/5 319/2/5
f 321/2/5 316/2/5 315/2/5
f 322/2/5 316/2/5 321/2/5
f 323/2/5 316/2/5 322/2/5
f 324/2/5 318/2/5 317/2/5
f 325/2/5 318/2/5 324/2/5
f 334/2/5 327/2/5 326/2/5
f 335/2/5 327/2/5 334/2/5
f 336/2/5 329/2/5 328/2/5
f 337/2/5 329/2/5 336/2/5
f 338/2/5 329/2/5 337/2/5
f 339/2/5 331/2/5 330/2/5
f 340/2/5 331/2/5 339/2/5
f 341/2/5 333/2/5 332/2/5
f 342/2/5 333/2/5 341/2/5
f 353/2/5 344/2/5 343/2/5
f 354/2/5 344/2/5 353/2/5
f 355/2/5 346/2/5 345/2/5
f 356/2/5 346/2/5 355/2/5
f 357/2/5 348/2/5 347/2/5
f 358/2/5 348/2/5 357/2/5
f 359/2/5 350/2/5 349/2/5
f 360/2/5 350/2/5 359/2/5
f 361/2/5 352/2/5 351/2/5
f 362/2/5 352/2/5 361/2/5
f 365/2/5 364/2/5 363/2/5
f 366/2/5 364/2/5 365/2/5
f 367/2/5 364/2/5 366/2/5
f 368/2/5 364/2/5 367/2/5
f 369/2/5 364/2/5 368/2/5
f 370/2/5 364/2/5 369/2/5
f 371/2/5 364/2/5 370/2/5
f 372/2/5 364/2/5 371/2/5
f 373/2/5 365/2/5 363/2/5
f 374/2/5 365/2/5 373/2/5
f 375/2/5 367/2/5 366/2/5
f 376/2/5 367/2/5 375/2/5
f 377/2/5 369/2/5 368/2/5
f 378/2/5 369/2/5 377/2/5
f 379/2/5 371/2/5 370/2/5
f 380/2/5 371/2/5 379/2/5
f 381/2/5 364/2/5 372/2/5
f 382/2/5 364/2/5 381/2/5
f 383/2/6 384/2/6 385/2/6
f 385/2/6 384/2/6 386/2/6
f 386/2/6 384/2/6 387/2/6
f 387/2/6 384/2/6 388/2/6
f 388/2/6 384/2/6 389/2/6
f 389/2/6 384/2/6 390/2/6
f 390/2/6 384/2/6 391/2/6
f 391/2/6 384/2/6 392/2/6
f 392/2/6 384/2/6 393/2/6
f 386/2/6 387/2/6 394/2/6
f 394/2/6 387/2/6 395/2/6
f 388/2/6 389/2/6 396/2/6
f 396/2/6 389/2/6 397/2/6
f 397/2/6 389/2/6 398/2/6
f 390/2/6 391/2/6 399/2/6
f 399/2/6 391/2/6 400/2/6
f 401/2/6 402/2/6 409/2/6
f 409/2/6 402/2/6 410/2/6
f 403/2/6 404/2/6 411/2/6
f 411/2/6 404/2/6 412/2/6
f 412/2/6 404/2/6 413/2/6
f 405/2/6 406/2/6 414/2/6
f 414/2/6 406/2/6 415/2/6
f 407/2/6 408/2/6 416/2/6
f 416/2/6 408/2/6 417/2/6
f 418/2/6 419/2/6 428/2/6
f 428/2/6 419/2/6 429/2/6
f 420/2/6 421/2/6 430/2/6
f 430/2/6 421/2/6 431/2/6
f 422/2/6 423/2/6 432/2/6
f 432/2/6 423/2/6 433/2/6
f 424/2/6 425/2/6 434/2/6
f 434/2/6 425/2/6 435/2/6
f 426/2/6 427/2/6 436/2/6
f 436/2/6 427/2/6 437/2/6
f 438/2/6 439/2/6 448/2/6
f 448/2/6 439/2/6 449/2/6
f 440/2/6 441/2/6 450/2/6
f 450/2/6 441/2/6 451/2/6
f 442/2/6 443/2/6 452/2/6
f 452/2/6 443/2/6 453/2/6
f 444/2/6 445/2/6 454/2/6
f 454/2/6 445/2/6 455/2/6
f 446/2/6 447/2/6 456/2/6
f 456/2/6 447/2/6 457/2/6
f 458/2/6 459/2/6 460/2/6
f 460/2/6 459/2/6 461/2/6
