# MagicaVoxel @ Ephtracy

# group
o 

# material
mtllib Parchment.mtl
usemtl palette

# normals
vn -1 0 0
vn 1 0 0
vn 0 0 1
vn 0 0 -1
vn 0 -1 0
vn 0 1 0

# texcoords
vt 0.841797 0.5
vt 0.958984 0.5

# verts
v -1 0 0.4
v -1 0 0.3
v -1 0.1 0.5
v -1 0.1 0.4
v -1 0.1 0.3
v -1 0.1 0.2
v -1 0.2 0.5
v -1 0.2 0.4
v -1 0.2 0.3
v -1 0.2 0.2
v -1 0.3 0.4
v -1 0.3 0.3
v -0.5 0.3 0.4
v -0.5 0.3 0.3
v -0.5 0.4 0.5
v -0.5 0.4 0.4
v -0.5 0.4 0.3
v -0.5 0.5 0.5
v -0.5 0.5 0.4
v -0.4 0.3 0.4
v -0.4 0.3 0.3
v -0.4 0.4 0.5
v -0.4 0.4 0.4
v -0.4 0.4 0.3
v -0.4 0.5 0.5
v -0.4 0.5 0.4
v 0.1 0 0.4
v 0.1 0 0.3
v 0.1 0.1 0.5
v 0.1 0.1 0.4
v 0.1 0.1 0.3
v 0.1 0.1 0.2
v 0.1 0.2 0.5
v 0.1 0.2 0.4
v 0.1 0.2 0.3
v 0.1 0.2 0.2
v 0.1 0.3 0.4
v 0.1 0.3 0.3
v -1 0.1 0.5
v -1 0.2 0.5
v -0.5 0.1 0.5
v -0.5 0.2 0.5
v -0.5 0.4 0.5
v -0.5 0.5 0.5
v -0.4 0.1 0.5
v -0.4 0.2 0.5
v -0.4 0.4 0.5
v -0.4 0.5 0.5
v 0.1 0.1 0.5
v 0.1 0.2 0.5
v -1 0 0.4
v -1 0.1 0.4
v -1 0.2 0.4
v -1 0.3 0.4
v -0.5 0 0.4
v -0.5 0.1 0.4
v -0.5 0.2 0.4
v -0.5 0.3 0.4
v -0.5 0.4 0.4
v -0.4 0 0.4
v -0.4 0.1 0.4
v -0.4 0.2 0.4
v -0.4 0.3 0.4
v -0.4 0.4 0.4
v 0.1 0 0.4
v 0.1 0.1 0.4
v 0.1 0.2 0.4
v 0.1 0.3 0.4
v -0.5 0.4 0.4
v -0.5 0.5 0.4
v -0.4 0.4 0.4
v -0.4 0.5 0.4
v -1 0 0.3
v -1 0.1 0.3
v -1 0.2 0.3
v -1 0.3 0.3
v -0.5 0 0.3
v -0.5 0.1 0.3
v -0.5 0.2 0.3
v -0.5 0.3 0.3
v -0.5 0.4 0.3
v -0.4 0 0.3
v -0.4 0.1 0.3
v -0.4 0.2 0.3
v -0.4 0.3 0.3
v -0.4 0.4 0.3
v 0.1 0 0.3
v 0.1 0.1 0.3
v 0.1 0.2 0.3
v 0.1 0.3 0.3
v -1 0.1 0.2
v -1 0.2 0.2
v -0.5 0.1 0.2
v -0.5 0.2 0.2
v -0.4 0.1 0.2
v -0.4 0.2 0.2
v 0.1 0.1 0.2
v 0.1 0.2 0.2
v -1 0 0.4
v -0.5 0 0.4
v -0.4 0 0.4
v 0.1 0 0.4
v -1 0 0.3
v -0.5 0 0.3
v -0.4 0 0.3
v 0.1 0 0.3
v -1 0.1 0.5
v -0.5 0.1 0.5
v -0.4 0.1 0.5
v 0.1 0.1 0.5
v -1 0.1 0.4
v -0.5 0.1 0.4
v -0.4 0.1 0.4
v 0.1 0.1 0.4
v -1 0.1 0.3
v -0.5 0.1 0.3
v -0.4 0.1 0.3
v 0.1 0.1 0.3
v -1 0.1 0.2
v -0.5 0.1 0.2
v -0.4 0.1 0.2
v 0.1 0.1 0.2
v -0.5 0.4 0.5
v -0.4 0.4 0.5
v -0.5 0.4 0.4
v -0.4 0.4 0.4
v -1 0.2 0.5
v -0.5 0.2 0.5
v -0.4 0.2 0.5
v 0.1 0.2 0.5
v -1 0.2 0.4
v -0.5 0.2 0.4
v -0.4 0.2 0.4
v 0.1 0.2 0.4
v -1 0.2 0.3
v -0.5 0.2 0.3
v -0.4 0.2 0.3
v 0.1 0.2 0.3
v -1 0.2 0.2
v -0.5 0.2 0.2
v -0.4 0.2 0.2
v 0.1 0.2 0.2
v -1 0.3 0.4
v -0.5 0.3 0.4
v -0.4 0.3 0.4
v 0.1 0.3 0.4
v -1 0.3 0.3
v -0.5 0.3 0.3
v -0.4 0.3 0.3
v 0.1 0.3 0.3
v -0.5 0.4 0.4
v -0.4 0.4 0.4
v -0.5 0.4 0.3
v -0.4 0.4 0.3
v -0.5 0.5 0.5
v -0.4 0.5 0.5
v -0.5 0.5 0.4
v -0.4 0.5 0.4

# faces
f 4/2/1 2/2/1 1/2/1
f 5/2/1 2/2/1 4/2/1
f 7/2/1 4/2/1 3/2/1
f 7/2/1 6/2/1 5/2/1
f 7/2/1 5/2/1 4/2/1
f 8/2/1 6/2/1 7/2/1
f 9/2/1 6/2/1 8/2/1
f 10/2/1 6/2/1 9/2/1
f 11/2/1 9/2/1 8/2/1
f 12/2/1 9/2/1 11/2/1
f 16/1/1 14/1/1 13/1/1
f 17/1/1 14/1/1 16/1/1
f 18/1/1 16/1/1 15/1/1
f 19/1/1 16/1/1 18/1/1
f 20/1/2 21/1/2 23/1/2
f 23/1/2 21/1/2 24/1/2
f 22/1/2 23/1/2 25/1/2
f 25/1/2 23/1/2 26/1/2
f 27/2/2 28/2/2 30/2/2
f 30/2/2 28/2/2 31/2/2
f 29/2/2 30/2/2 33/2/2
f 31/2/2 32/2/2 33/2/2
f 30/2/2 31/2/2 33/2/2
f 33/2/2 32/2/2 34/2/2
f 34/2/2 32/2/2 35/2/2
f 35/2/2 32/2/2 36/2/2
f 34/2/2 35/2/2 37/2/2
f 37/2/2 35/2/2 38/2/2
f 41/2/3 40/2/3 39/2/3
f 42/2/3 40/2/3 41/2/3
f 45/1/3 42/1/3 41/1/3
f 46/1/3 42/1/3 45/1/3
f 47/1/3 44/1/3 43/1/3
f 48/1/3 44/1/3 47/1/3
f 49/2/3 46/2/3 45/2/3
f 50/2/3 46/2/3 49/2/3
f 55/2/3 52/2/3 51/2/3
f 56/2/3 52/2/3 55/2/3
f 57/2/3 54/2/3 53/2/3
f 58/2/3 54/2/3 57/2/3
f 60/1/3 56/1/3 55/1/3
f 61/1/3 56/1/3 60/1/3
f 62/1/3 59/1/3 58/1/3
f 62/1/3 58/1/3 57/1/3
f 63/1/3 59/1/3 62/1/3
f 64/1/3 59/1/3 63/1/3
f 65/2/3 61/2/3 60/2/3
f 66/2/3 61/2/3 65/2/3
f 67/2/3 63/2/3 62/2/3
f 68/2/3 63/2/3 67/2/3
f 69/1/4 70/1/4 71/1/4
f 71/1/4 70/1/4 72/1/4
f 73/2/4 74/2/4 77/2/4
f 77/2/4 74/2/4 78/2/4
f 75/2/4 76/2/4 79/2/4
f 79/2/4 76/2/4 80/2/4
f 77/1/4 78/1/4 82/1/4
f 82/1/4 78/1/4 83/1/4
f 80/1/4 81/1/4 84/1/4
f 79/1/4 80/1/4 84/1/4
f 84/1/4 81/1/4 85/1/4
f 85/1/4 81/1/4 86/1/4
f 82/2/4 83/2/4 87/2/4
f 87/2/4 83/2/4 88/2/4
f 84/2/4 85/2/4 89/2/4
f 89/2/4 85/2/4 90/2/4
f 91/2/4 92/2/4 93/2/4
f 93/2/4 92/2/4 94/2/4
f 93/1/4 94/1/4 95/1/4
f 95/1/4 94/1/4 96/1/4
f 95/2/4 96/2/4 97/2/4
f 97/2/4 96/2/4 98/2/4
f 103/2/5 100/2/5 99/2/5
f 104/1/5 101/1/5 100/1/5
f 104/2/5 100/2/5 103/2/5
f 105/2/5 102/2/5 101/2/5
f 105/1/5 101/1/5 104/1/5
f 106/2/5 102/2/5 105/2/5
f 111/2/5 108/2/5 107/2/5
f 112/1/5 109/1/5 108/1/5
f 112/2/5 108/2/5 111/2/5
f 113/2/5 110/2/5 109/2/5
f 113/1/5 109/1/5 112/1/5
f 114/2/5 110/2/5 113/2/5
f 119/2/5 116/2/5 115/2/5
f 120/1/5 117/1/5 116/1/5
f 120/2/5 116/2/5 119/2/5
f 121/2/5 118/2/5 117/2/5
f 121/1/5 117/1/5 120/1/5
f 122/2/5 118/2/5 121/2/5
f 125/1/5 124/1/5 123/1/5
f 126/1/5 124/1/5 125/1/5
f 127/2/6 128/2/6 131/2/6
f 128/1/6 129/1/6 132/1/6
f 131/2/6 128/2/6 132/2/6
f 129/2/6 130/2/6 133/2/6
f 132/1/6 129/1/6 133/1/6
f 133/2/6 130/2/6 134/2/6
f 135/2/6 136/2/6 139/2/6
f 136/1/6 137/1/6 140/1/6
f 139/2/6 136/2/6 140/2/6
f 137/2/6 138/2/6 141/2/6
f 140/1/6 137/1/6 141/1/6
f 141/2/6 138/2/6 142/2/6
f 143/2/6 144/2/6 147/2/6
f 147/2/6 144/2/6 148/2/6
f 145/2/6 146/2/6 149/2/6
f 149/2/6 146/2/6 150/2/6
f 151/1/6 152/1/6 153/1/6
f 153/1/6 152/1/6 154/1/6
f 155/1/6 156/1/6 157/1/6
f 157/1/6 156/1/6 158/1/6
