# MagicaVoxel @ Ephtracy

# group
o 

# material
mtllib Shield (Wall).mtl
usemtl palette

# normals
vn -1 0 0
vn 1 0 0
vn 0 0 1
vn 0 0 -1
vn 0 -1 0
vn 0 1 0

# texcoords
vt 0.0214844 0.5
vt 0.849609 0.5
vt 0.876953 0.5
vt 0.958984 0.5

# verts
v -0.3 0.9 -1.9
v -0.3 0.9 -2
v -0.3 1.4 -1.9
v -0.3 1.4 -2
v -0.3 1.5 -1.9
v -0.3 1.5 -2
v -0.2 0.4 -1.9
v -0.2 0.4 -2
v -0.2 0.9 -1.9
v -0.2 0.9 -2
v -0.2 1.5 -1.9
v -0.2 1.5 -2
v -0.2 1.6 -1.9
v -0.2 1.6 -2
v -0.1 0.3 -1.9
v -0.1 0.3 -2
v -0.1 0.4 -1.9
v -0.1 0.4 -2
v 0 0.2 -1.9
v 0 0.2 -2
v 0 0.3 -1.9
v 0 0.3 -2
v 0 1.6 -1.9
v 0 1.6 -2
v 0 1.7 -1.9
v 0 1.7 -2
v 0.1 0.1 -1.9
v 0.1 0.1 -2
v 0.1 0.2 -1.9
v 0.1 0.2 -2
v 0.3 0.1 -1.9
v 0.3 0.1 -2
v 0.3 0.2 -1.9
v 0.3 0.2 -2
v 0.4 0.2 -1.9
v 0.4 0.2 -2
v 0.4 0.3 -1.9
v 0.4 0.3 -2
v 0.4 1.6 -1.9
v 0.4 1.6 -2
v 0.4 1.7 -1.9
v 0.4 1.7 -2
v 0.5 0.3 -1.9
v 0.5 0.3 -2
v 0.5 0.4 -1.9
v 0.5 0.4 -2
v 0.6 0.4 -1.9
v 0.6 0.4 -2
v 0.6 0.9 -1.9
v 0.6 0.9 -2
v 0.6 1.5 -1.9
v 0.6 1.5 -2
v 0.6 1.6 -1.9
v 0.6 1.6 -2
v 0.7 0.9 -1.9
v 0.7 0.9 -2
v 0.7 1.4 -1.9
v 0.7 1.4 -2
v 0.7 1.5 -1.9
v 0.7 1.5 -2
v -0.3 0.9 -1.9
v -0.3 1.4 -1.9
v -0.3 1.5 -1.9
v -0.2 0.4 -1.9
v -0.2 0.9 -1.9
v -0.2 1.4 -1.9
v -0.2 1.5 -1.9
v -0.2 1.6 -1.9
v -0.1 0.3 -1.9
v -0.1 0.4 -1.9
v -0.1 0.8 -1.9
v -0.1 0.9 -1.9
v -0.1 1.3 -1.9
v -0.1 1.4 -1.9
v -0.1 1.5 -1.9
v -0.1 1.6 -1.9
v 0 0.2 -1.9
v 0 0.3 -1.9
v 0 0.4 -1.9
v 0 0.7 -1.9
v 0 0.8 -1.9
v 0 0.9 -1.9
v 0 1.3 -1.9
v 0 1.4 -1.9
v 0 1.5 -1.9
v 0 1.6 -1.9
v 0 1.7 -1.9
v 0.1 0.1 -1.9
v 0.1 0.2 -1.9
v 0.1 0.3 -1.9
v 0.1 0.4 -1.9
v 0.1 0.6 -1.9
v 0.1 0.8 -1.9
v 0.1 0.9 -1.9
v 0.1 1.3 -1.9
v 0.1 1.4 -1.9
v 0.1 1.6 -1.9
v 0.1 1.7 -1.9
v 0.2 0.2 -1.9
v 0.2 0.4 -1.9
v 0.2 0.6 -1.9
v 0.2 0.7 -1.9
v 0.2 0.9 -1.9
v 0.2 1.3 -1.9
v 0.2 1.5 -1.9
v 0.2 1.6 -1.9
v 0.3 0.1 -1.9
v 0.3 0.2 -1.9
v 0.3 0.3 -1.9
v 0.3 0.4 -1.9
v 0.3 0.6 -1.9
v 0.3 0.8 -1.9
v 0.3 0.9 -1.9
v 0.3 1.3 -1.9
v 0.3 1.4 -1.9
v 0.3 1.6 -1.9
v 0.3 1.7 -1.9
v 0.4 0.2 -1.9
v 0.4 0.3 -1.9
v 0.4 0.4 -1.9
v 0.4 0.7 -1.9
v 0.4 0.8 -1.9
v 0.4 0.9 -1.9
v 0.4 1.3 -1.9
v 0.4 1.4 -1.9
v 0.4 1.5 -1.9
v 0.4 1.6 -1.9
v 0.4 1.7 -1.9
v 0.5 0.3 -1.9
v 0.5 0.4 -1.9
v 0.5 0.8 -1.9
v 0.5 0.9 -1.9
v 0.5 1.3 -1.9
v 0.5 1.4 -1.9
v 0.5 1.5 -1.9
v 0.5 1.6 -1.9
v 0.6 0.4 -1.9
v 0.6 0.9 -1.9
v 0.6 1.4 -1.9
v 0.6 1.5 -1.9
v 0.6 1.6 -1.9
v 0.7 0.9 -1.9
v 0.7 1.4 -1.9
v 0.7 1.5 -1.9
v -0.3 0.9 -2
v -0.3 1.4 -2
v -0.3 1.5 -2
v -0.2 0.4 -2
v -0.2 0.9 -2
v -0.2 1.4 -2
v -0.2 1.5 -2
v -0.2 1.6 -2
v -0.1 0.3 -2
v -0.1 0.4 -2
v -0.1 0.8 -2
v -0.1 0.9 -2
v -0.1 1.3 -2
v -0.1 1.4 -2
v -0.1 1.5 -2
v -0.1 1.6 -2
v 0 0.2 -2
v 0 0.3 -2
v 0 0.4 -2
v 0 0.7 -2
v 0 0.8 -2
v 0 0.9 -2
v 0 1.3 -2
v 0 1.4 -2
v 0 1.5 -2
v 0 1.6 -2
v 0 1.7 -2
v 0.1 0.1 -2
v 0.1 0.2 -2
v 0.1 0.3 -2
v 0.1 0.4 -2
v 0.1 0.6 -2
v 0.1 0.8 -2
v 0.1 0.9 -2
v 0.1 1.3 -2
v 0.1 1.4 -2
v 0.1 1.6 -2
v 0.1 1.7 -2
v 0.2 0.2 -2
v 0.2 0.4 -2
v 0.2 0.6 -2
v 0.2 0.7 -2
v 0.2 0.9 -2
v 0.2 1.3 -2
v 0.2 1.5 -2
v 0.2 1.6 -2
v 0.3 0.1 -2
v 0.3 0.2 -2
v 0.3 0.3 -2
v 0.3 0.4 -2
v 0.3 0.6 -2
v 0.3 0.8 -2
v 0.3 0.9 -2
v 0.3 1.3 -2
v 0.3 1.4 -2
v 0.3 1.6 -2
v 0.3 1.7 -2
v 0.4 0.2 -2
v 0.4 0.3 -2
v 0.4 0.4 -2
v 0.4 0.7 -2
v 0.4 0.8 -2
v 0.4 0.9 -2
v 0.4 1.3 -2
v 0.4 1.4 -2
v 0.4 1.5 -2
v 0.4 1.6 -2
v 0.4 1.7 -2
v 0.5 0.3 -2
v 0.5 0.4 -2
v 0.5 0.8 -2
v 0.5 0.9 -2
v 0.5 1.3 -2
v 0.5 1.4 -2
v 0.5 1.5 -2
v 0.5 1.6 -2
v 0.6 0.4 -2
v 0.6 0.9 -2
v 0.6 1.4 -2
v 0.6 1.5 -2
v 0.6 1.6 -2
v 0.7 0.9 -2
v 0.7 1.4 -2
v 0.7 1.5 -2
v 0.1 0.1 -1.9
v 0.3 0.1 -1.9
v 0.1 0.1 -2
v 0.3 0.1 -2
v 0 0.2 -1.9
v 0.1 0.2 -1.9
v 0.3 0.2 -1.9
v 0.4 0.2 -1.9
v 0 0.2 -2
v 0.1 0.2 -2
v 0.3 0.2 -2
v 0.4 0.2 -2
v -0.1 0.3 -1.9
v 0 0.3 -1.9
v 0.4 0.3 -1.9
v 0.5 0.3 -1.9
v -0.1 0.3 -2
v 0 0.3 -2
v 0.4 0.3 -2
v 0.5 0.3 -2
v -0.2 0.4 -1.9
v -0.1 0.4 -1.9
v 0.5 0.4 -1.9
v 0.6 0.4 -1.9
v -0.2 0.4 -2
v -0.1 0.4 -2
v 0.5 0.4 -2
v 0.6 0.4 -2
v -0.3 0.9 -1.9
v -0.2 0.9 -1.9
v 0.6 0.9 -1.9
v 0.7 0.9 -1.9
v -0.3 0.9 -2
v -0.2 0.9 -2
v 0.6 0.9 -2
v 0.7 0.9 -2
v -0.3 1.5 -1.9
v -0.2 1.5 -1.9
v 0.6 1.5 -1.9
v 0.7 1.5 -1.9
v -0.3 1.5 -2
v -0.2 1.5 -2
v 0.6 1.5 -2
v 0.7 1.5 -2
v -0.2 1.6 -1.9
v -0.1 1.6 -1.9
v 0 1.6 -1.9
v 0.4 1.6 -1.9
v 0.5 1.6 -1.9
v 0.6 1.6 -1.9
v -0.2 1.6 -2
v -0.1 1.6 -2
v 0 1.6 -2
v 0.4 1.6 -2
v 0.5 1.6 -2
v 0.6 1.6 -2
v 0 1.7 -1.9
v 0.1 1.7 -1.9
v 0.3 1.7 -1.9
v 0.4 1.7 -1.9
v 0 1.7 -2
v 0.1 1.7 -2
v 0.3 1.7 -2
v 0.4 1.7 -2

# faces
f 3/1/1 2/1/1 1/1/1
f 4/1/1 2/1/1 3/1/1
f 5/3/1 4/3/1 3/3/1
f 6/3/1 4/3/1 5/3/1
f 9/1/1 8/1/1 7/1/1
f 10/1/1 8/1/1 9/1/1
f 13/3/1 12/3/1 11/3/1
f 14/3/1 12/3/1 13/3/1
f 17/1/1 16/1/1 15/1/1
f 18/1/1 16/1/1 17/1/1
f 21/1/1 20/1/1 19/1/1
f 22/1/1 20/1/1 21/1/1
f 25/1/1 24/1/1 23/1/1
f 26/1/1 24/1/1 25/1/1
f 29/3/1 28/3/1 27/3/1
f 30/3/1 28/3/1 29/3/1
f 31/3/2 32/3/2 33/3/2
f 33/3/2 32/3/2 34/3/2
f 35/1/2 36/1/2 37/1/2
f 37/1/2 36/1/2 38/1/2
f 39/1/2 40/1/2 41/1/2
f 41/1/2 40/1/2 42/1/2
f 43/1/2 44/1/2 45/1/2
f 45/1/2 44/1/2 46/1/2
f 47/1/2 48/1/2 49/1/2
f 49/1/2 48/1/2 50/1/2
f 51/3/2 52/3/2 53/3/2
f 53/3/2 52/3/2 54/3/2
f 55/1/2 56/1/2 57/1/2
f 57/1/2 56/1/2 58/1/2
f 57/3/2 58/3/2 59/3/2
f 59/3/2 58/3/2 60/3/2
f 65/1/3 62/1/3 61/1/3
f 66/3/3 63/3/3 62/3/3
f 66/1/3 62/1/3 65/1/3
f 67/3/3 63/3/3 66/3/3
f 70/1/3 65/1/3 64/1/3
f 71/1/3 65/1/3 70/1/3
f 72/4/3 66/4/3 65/4/3
f 72/1/3 65/1/3 71/1/3
f 72/4/3 67/4/3 66/4/3
f 73/4/3 67/4/3 72/4/3
f 74/4/3 67/4/3 73/4/3
f 75/3/3 68/3/3 67/3/3
f 75/4/3 67/4/3 74/4/3
f 76/3/3 68/3/3 75/3/3
f 78/1/3 70/1/3 69/1/3
f 79/4/3 71/4/3 70/4/3
f 79/1/3 70/1/3 78/1/3
f 80/4/3 71/4/3 79/4/3
f 81/2/3 72/2/3 71/2/3
f 81/4/3 71/4/3 80/4/3
f 82/4/3 73/4/3 72/4/3
f 82/2/3 72/2/3 81/2/3
f 83/2/3 74/2/3 73/2/3
f 83/4/3 73/4/3 82/4/3
f 84/4/3 75/4/3 74/4/3
f 84/2/3 74/2/3 83/2/3
f 85/1/3 76/1/3 75/1/3
f 85/4/3 75/4/3 84/4/3
f 86/1/3 76/1/3 85/1/3
f 89/1/3 78/1/3 77/1/3
f 90/4/3 80/4/3 79/4/3
f 90/4/3 79/4/3 78/4/3
f 90/1/3 78/1/3 89/1/3
f 91/4/3 80/4/3 90/4/3
f 92/4/3 80/4/3 91/4/3
f 93/4/3 82/4/3 81/4/3
f 93/2/3 81/2/3 80/2/3
f 94/2/3 83/2/3 82/2/3
f 94/4/3 82/4/3 93/4/3
f 95/4/3 84/4/3 83/4/3
f 95/2/3 83/2/3 94/2/3
f 96/2/3 85/2/3 84/2/3
f 96/4/3 84/4/3 95/4/3
f 97/1/3 87/1/3 86/1/3
f 97/4/3 86/4/3 85/4/3
f 98/1/3 87/1/3 97/1/3
f 99/3/3 89/3/3 88/3/3
f 99/4/3 90/4/3 89/4/3
f 99/4/3 91/4/3 90/4/3
f 100/1/3 92/1/3 91/1/3
f 100/4/3 91/4/3 99/4/3
f 101/4/3 80/4/3 92/4/3
f 101/1/3 92/1/3 100/1/3
f 102/2/3 93/2/3 80/2/3
f 102/4/3 80/4/3 101/4/3
f 102/2/3 94/2/3 93/2/3
f 103/4/3 95/4/3 94/4/3
f 103/2/3 94/2/3 102/2/3
f 104/2/3 96/2/3 95/2/3
f 104/4/3 95/4/3 103/4/3
f 105/2/3 85/2/3 96/2/3
f 105/2/3 96/2/3 104/2/3
f 105/4/3 97/4/3 85/4/3
f 106/3/3 98/3/3 97/3/3
f 106/4/3 97/4/3 105/4/3
f 107/3/3 100/3/3 99/3/3
f 107/3/3 99/3/3 88/3/3
f 108/3/3 100/3/3 107/3/3
f 109/3/3 100/3/3 108/3/3
f 110/1/3 101/1/3 100/1/3
f 110/3/3 100/3/3 109/3/3
f 111/3/3 102/3/3 101/3/3
f 111/1/3 101/1/3 110/1/3
f 112/2/3 103/2/3 102/2/3
f 113/3/3 104/3/3 103/3/3
f 113/2/3 103/2/3 112/2/3
f 114/2/3 105/2/3 104/2/3
f 114/3/3 104/3/3 113/3/3
f 115/2/3 105/2/3 114/2/3
f 116/3/3 98/3/3 106/3/3
f 116/3/3 106/3/3 105/3/3
f 117/3/3 98/3/3 116/3/3
f 118/1/3 109/1/3 108/1/3
f 119/3/3 110/3/3 109/3/3
f 119/1/3 109/1/3 118/1/3
f 119/3/3 111/3/3 110/3/3
f 120/3/3 111/3/3 119/3/3
f 121/2/3 112/2/3 102/2/3
f 121/3/3 111/3/3 120/3/3
f 121/3/3 102/3/3 111/3/3
f 122/3/3 113/3/3 112/3/3
f 122/2/3 112/2/3 121/2/3
f 123/2/3 114/2/3 113/2/3
f 123/3/3 113/3/3 122/3/3
f 124/3/3 115/3/3 114/3/3
f 124/2/3 114/2/3 123/2/3
f 125/2/3 105/2/3 115/2/3
f 125/3/3 115/3/3 124/3/3
f 126/3/3 116/3/3 105/3/3
f 126/2/3 105/2/3 125/2/3
f 127/1/3 117/1/3 116/1/3
f 127/3/3 116/3/3 126/3/3
f 128/1/3 117/1/3 127/1/3
f 129/1/3 120/1/3 119/1/3
f 130/3/3 121/3/3 120/3/3
f 130/1/3 120/1/3 129/1/3
f 130/3/3 122/3/3 121/3/3
f 131/2/3 123/2/3 122/2/3
f 131/3/3 122/3/3 130/3/3
f 132/3/3 124/3/3 123/3/3
f 132/2/3 123/2/3 131/2/3
f 133/2/3 125/2/3 124/2/3
f 133/3/3 124/3/3 132/3/3
f 134/3/3 126/3/3 125/3/3
f 134/2/3 125/2/3 133/2/3
f 135/1/3 127/1/3 126/1/3
f 135/3/3 126/3/3 134/3/3
f 136/1/3 127/1/3 135/1/3
f 137/1/3 131/1/3 130/1/3
f 137/1/3 132/1/3 131/1/3
f 138/3/3 134/3/3 133/3/3
f 138/1/3 132/1/3 137/1/3
f 138/3/3 136/3/3 135/3/3
f 138/3/3 135/3/3 134/3/3
f 138/3/3 133/3/3 132/3/3
f 139/3/3 136/3/3 138/3/3
f 140/3/3 136/3/3 139/3/3
f 141/3/3 136/3/3 140/3/3
f 142/1/3 139/1/3 138/1/3
f 143/3/3 140/3/3 139/3/3
f 143/1/3 139/1/3 142/1/3
f 144/3/3 140/3/3 143/3/3
f 145/1/4 146/1/4 149/1/4
f 146/3/4 147/3/4 150/3/4
f 149/1/4 146/1/4 150/1/4
f 150/3/4 147/3/4 151/3/4
f 148/1/4 149/1/4 154/1/4
f 154/1/4 149/1/4 155/1/4
f 149/4/4 150/4/4 156/4/4
f 155/1/4 149/1/4 156/1/4
f 150/4/4 151/4/4 156/4/4
f 156/4/4 151/4/4 157/4/4
f 157/4/4 151/4/4 158/4/4
f 151/3/4 152/3/4 159/3/4
f 158/4/4 151/4/4 159/4/4
f 159/3/4 152/3/4 160/3/4
f 153/1/4 154/1/4 162/1/4
f 154/4/4 155/4/4 163/4/4
f 162/1/4 154/1/4 163/1/4
f 163/4/4 155/4/4 164/4/4
f 155/2/4 156/2/4 165/2/4
f 164/4/4 155/4/4 165/4/4
f 156/4/4 157/4/4 166/4/4
f 165/2/4 156/2/4 166/2/4
f 157/2/4 158/2/4 167/2/4
f 166/4/4 157/4/4 167/4/4
f 158/4/4 159/4/4 168/4/4
f 167/2/4 158/2/4 168/2/4
f 159/1/4 160/1/4 169/1/4
f 168/4/4 159/4/4 169/4/4
f 169/1/4 160/1/4 170/1/4
f 161/1/4 162/1/4 173/1/4
f 163/4/4 164/4/4 174/4/4
f 162/4/4 163/4/4 174/4/4
f 173/1/4 162/1/4 174/1/4
f 174/4/4 164/4/4 175/4/4
f 175/4/4 164/4/4 176/4/4
f 165/4/4 166/4/4 177/4/4
f 164/2/4 165/2/4 177/2/4
f 166/2/4 167/2/4 178/2/4
f 177/4/4 166/4/4 178/4/4
f 167/4/4 168/4/4 179/4/4
f 178/2/4 167/2/4 179/2/4
f 168/2/4 169/2/4 180/2/4
f 179/4/4 168/4/4 180/4/4
f 170/1/4 171/1/4 181/1/4
f 169/4/4 170/4/4 181/4/4
f 181/1/4 171/1/4 182/1/4
f 172/3/4 173/3/4 183/3/4
f 173/4/4 174/4/4 183/4/4
f 174/4/4 175/4/4 183/4/4
f 175/1/4 176/1/4 184/1/4
f 183/4/4 175/4/4 184/4/4
f 176/4/4 164/4/4 185/4/4
f 184/1/4 176/1/4 185/1/4
f 164/2/4 177/2/4 186/2/4
f 185/4/4 164/4/4 186/4/4
f 177/2/4 178/2/4 186/2/4
f 178/4/4 179/4/4 187/4/4
f 186/2/4 178/2/4 187/2/4
f 179/2/4 180/2/4 188/2/4
f 187/4/4 179/4/4 188/4/4
f 180/2/4 169/2/4 189/2/4
f 188/2/4 180/2/4 189/2/4
f 169/4/4 181/4/4 189/4/4
f 181/3/4 182/3/4 190/3/4
f 189/4/4 181/4/4 190/4/4
f 183/3/4 184/3/4 191/3/4
f 172/3/4 183/3/4 191/3/4
f 191/3/4 184/3/4 192/3/4
f 192/3/4 184/3/4 193/3/4
f 184/1/4 185/1/4 194/1/4
f 193/3/4 184/3/4 194/3/4
f 185/3/4 186/3/4 195/3/4
f 194/1/4 185/1/4 195/1/4
f 186/2/4 187/2/4 196/2/4
f 187/3/4 188/3/4 197/3/4
f 196/2/4 187/2/4 197/2/4
f 188/2/4 189/2/4 198/2/4
f 197/3/4 188/3/4 198/3/4
f 198/2/4 189/2/4 199/2/4
f 190/3/4 182/3/4 200/3/4
f 189/3/4 190/3/4 200/3/4
f 200/3/4 182/3/4 201/3/4
f 192/1/4 193/1/4 202/1/4
f 193/3/4 194/3/4 203/3/4
f 202/1/4 193/1/4 203/1/4
f 194/3/4 195/3/4 203/3/4
f 203/3/4 195/3/4 204/3/4
f 186/2/4 196/2/4 205/2/4
f 204/3/4 195/3/4 205/3/4
f 195/3/4 186/3/4 205/3/4
f 196/3/4 197/3/4 206/3/4
f 205/2/4 196/2/4 206/2/4
f 197/2/4 198/2/4 207/2/4
f 206/3/4 197/3/4 207/3/4
f 198/3/4 199/3/4 208/3/4
f 207/2/4 198/2/4 208/2/4
f 199/2/4 189/2/4 209/2/4
f 208/3/4 199/3/4 209/3/4
f 189/3/4 200/3/4 210/3/4
f 209/2/4 189/2/4 210/2/4
f 200/1/4 201/1/4 211/1/4
f 210/3/4 200/3/4 211/3/4
f 211/1/4 201/1/4 212/1/4
f 203/1/4 204/1/4 213/1/4
f 204/3/4 205/3/4 214/3/4
f 213/1/4 204/1/4 214/1/4
f 205/3/4 206/3/4 214/3/4
f 206/2/4 207/2/4 215/2/4
f 214/3/4 206/3/4 215/3/4
f 207/3/4 208/3/4 216/3/4
f 215/2/4 207/2/4 216/2/4
f 208/2/4 209/2/4 217/2/4
f 216/3/4 208/3/4 217/3/4
f 209/3/4 210/3/4 218/3/4
f 217/2/4 209/2/4 218/2/4
f 210/1/4 211/1/4 219/1/4
f 218/3/4 210/3/4 219/3/4
f 219/1/4 211/1/4 220/1/4
f 214/1/4 215/1/4 221/1/4
f 215/1/4 216/1/4 221/1/4
f 217/3/4 218/3/4 222/3/4
f 221/1/4 216/1/4 222/1/4
f 219/3/4 220/3/4 222/3/4
f 218/3/4 219/3/4 222/3/4
f 216/3/4 217/3/4 222/3/4
f 222/3/4 220/3/4 223/3/4
f 223/3/4 220/3/4 224/3/4
f 224/3/4 220/3/4 225/3/4
f 222/1/4 223/1/4 226/1/4
f 223/3/4 224/3/4 227/3/4
f 226/1/4 223/1/4 227/1/4
f 227/3/4 224/3/4 228/3/4
f 231/3/5 230/3/5 229/3/5
f 232/3/5 230/3/5 231/3/5
f 237/1/5 234/1/5 233/1/5
f 238/1/5 234/1/5 237/1/5
f 239/1/5 236/1/5 235/1/5
f 240/1/5 236/1/5 239/1/5
f 245/1/5 242/1/5 241/1/5
f 246/1/5 242/1/5 245/1/5
f 247/1/5 244/1/5 243/1/5
f 248/1/5 244/1/5 247/1/5
f 253/1/5 250/1/5 249/1/5
f 254/1/5 250/1/5 253/1/5
f 255/1/5 252/1/5 251/1/5
f 256/1/5 252/1/5 255/1/5
f 261/1/5 258/1/5 257/1/5
f 262/1/5 258/1/5 261/1/5
f 263/1/5 260/1/5 259/1/5
f 264/1/5 260/1/5 263/1/5
f 265/3/6 266/3/6 269/3/6
f 269/3/6 266/3/6 270/3/6
f 267/3/6 268/3/6 271/3/6
f 271/3/6 268/3/6 272/3/6
f 273/3/6 274/3/6 279/3/6
f 274/1/6 275/1/6 280/1/6
f 279/3/6 274/3/6 280/3/6
f 280/1/6 275/1/6 281/1/6
f 276/1/6 277/1/6 282/1/6
f 277/3/6 278/3/6 283/3/6
f 282/1/6 277/1/6 283/1/6
f 283/3/6 278/3/6 284/3/6
f 285/1/6 286/1/6 289/1/6
f 286/3/6 287/3/6 290/3/6
f 289/1/6 286/1/6 290/1/6
f 287/1/6 288/1/6 291/1/6
f 290/3/6 287/3/6 291/3/6
f 291/1/6 288/1/6 292/1/6
